<?xml version="1.0"?>
<svg xmlns="http://www.w3.org/2000/svg" version="1.1" width="455.81085148921517" height="435.59375000000006" viewBox="0 0 389.1347394161461 371.875" class="css-1j8o68f"><defs id="SvgjsDefs28968"><linearGradient id="SvgjsLinearGradient28975"><stop id="SvgjsStop28976" stop-color="#ef4136" offset="0"></stop><stop id="SvgjsStop28977" stop-color="#fbb040" offset="1"></stop></linearGradient><linearGradient id="SvgjsLinearGradient28978"><stop id="SvgjsStop28979" stop-color="#2d388a" offset="0"></stop><stop id="SvgjsStop28980" stop-color="#00aeef" offset="1"></stop></linearGradient></defs><g id="SvgjsG28969" featurekey="rootContainer" transform="matrix(1.9769890454890324,0,0,1.9769890454890324,0,-0.0005684492084645684)" fill="url(#SvgjsLinearGradient28975)"><path xmlns="http://www.w3.org/2000/svg" d="M186.447 79.063c-3.855-3.434-7.841-6.985-9.041-10.679-1.271-3.915-.119-9.292.995-14.493 1.4-6.532 2.847-13.286-.362-17.696-3.251-4.466-10.169-5.172-16.86-5.854-5.254-.536-10.687-1.09-13.96-3.472-3.217-2.341-5.394-7.295-7.5-12.086-2.727-6.206-5.548-12.622-10.885-14.355-5.077-1.65-10.989 1.778-16.703 5.092-4.663 2.705-9.485 5.501-13.714 5.501-4.229 0-9.051-2.796-13.714-5.501C78.988 2.206 73.077-1.22 67.998.428c-5.336 1.733-8.156 8.149-10.883 14.354-2.106 4.791-4.283 9.746-7.501 12.087-3.272 2.382-8.705 2.936-13.96 3.472-6.69.682-13.609 1.388-16.86 5.854-3.209 4.41-1.761 11.164-.362 17.696 1.114 5.201 2.267 10.578.996 14.493-1.199 3.694-5.186 7.245-9.041 10.679C5.28 83.611 0 88.315 0 94.051c0 5.736 5.28 10.44 10.387 14.988 3.855 3.434 7.842 6.985 9.041 10.679 1.271 3.915.119 9.292-.996 14.493-1.399 6.532-2.848 13.287.362 17.696 3.251 4.467 10.17 5.172 16.86 5.855 5.255.536 10.688 1.09 13.96 3.471 3.218 2.341 5.395 7.295 7.5 12.086 2.728 6.205 5.547 12.622 10.884 14.355 5.078 1.65 10.99-1.777 16.704-5.092 4.663-2.704 9.485-5.5 13.714-5.5 4.229 0 9.051 2.796 13.713 5.5 4.694 2.722 9.517 5.52 13.906 5.52.955 0 1.891-.132 2.799-.428 5.337-1.733 8.157-8.149 10.884-14.355 2.106-4.791 4.283-9.745 7.5-12.086 3.273-2.382 8.705-2.936 13.96-3.471 6.691-.683 13.61-1.388 16.86-5.855 3.21-4.409 1.762-11.164.363-17.696-1.115-5.201-2.267-10.578-.996-14.493 1.199-3.694 5.186-7.245 9.041-10.679 5.106-4.548 10.386-9.252 10.386-14.988.001-5.736-5.279-10.44-10.385-14.988zm-1.031 28.817c-4.01 3.572-8.155 7.265-9.484 11.358-1.4 4.311-.203 9.896.954 15.296 1.328 6.199 2.702 12.61-.1 16.459-2.843 3.907-9.412 4.577-15.764 5.225-5.459.557-11.104 1.132-14.715 3.761-3.555 2.588-5.818 7.736-8.006 12.716-2.59 5.892-5.267 11.985-9.942 13.504-4.422 1.436-9.777-1.67-15.448-4.958-4.84-2.807-9.846-5.71-14.492-5.71-4.646 0-9.652 2.903-14.492 5.71-5.671 3.289-11.03 6.394-15.447 4.958-4.676-1.518-7.354-7.611-9.944-13.503-2.188-4.98-4.451-10.128-8.006-12.716-3.611-2.628-9.256-3.204-14.715-3.761-6.353-.648-12.92-1.318-15.764-5.225-2.802-3.849-1.428-10.26-.099-16.458 1.157-5.401 2.354-10.985.954-15.297-1.33-4.093-5.475-7.786-9.484-11.358-4.851-4.321-9.868-8.79-9.868-13.83 0-5.04 5.017-9.509 9.868-13.83 4.009-3.571 8.155-7.264 9.484-11.357 1.4-4.312.203-9.896-.954-15.297-1.329-6.199-2.703-12.609.099-16.458 2.844-3.907 9.412-4.577 15.764-5.225 5.459-.557 11.104-1.132 14.715-3.761 3.556-2.587 5.819-7.737 8.007-12.717 2.589-5.892 5.267-11.985 9.942-13.503 4.424-1.434 9.777 1.67 15.448 4.959 4.84 2.807 9.846 5.71 14.492 5.71 4.646 0 9.652-2.903 14.492-5.71 5.67-3.288 11.027-6.395 15.447-4.958 4.676 1.518 7.354 7.611 9.943 13.504 2.188 4.979 4.451 10.128 8.006 12.716 3.612 2.628 9.256 3.204 14.716 3.761 6.352.648 12.92 1.318 15.763 5.225 2.802 3.85 1.428 10.259.1 16.458-1.157 5.401-2.354 10.985-.954 15.296 1.329 4.094 5.475 7.787 9.484 11.358 4.851 4.322 9.867 8.79 9.867 13.83-.001 5.039-5.016 9.507-9.867 13.828z"></path></g><g id="SvgjsG28970" featurekey="symbolFeature-0" transform="matrix(1.3281694907697328,0,0,1.3281694907697328,128.58901117886796,59.704979267617965)" fill="#f7f7f7"><path xmlns="http://www.w3.org/2000/svg" d="M42.282,94.506c-3.036,0-5.992-0.507-8.393-1.544c-4.794-2.07-6.654-5.93-5.105-10.592  c1.889-5.686,2.249-10.552,1.202-16.271c-0.343-1.875-1.142-3.956-2.027-6.158c-0.758,0.056-1.53,0.044-2.314-0.036  c-6.013-0.607-10.872-5.035-12.379-11.28c-3.132-12.973,1.95-26.45,13.264-35.172c11.59-8.936,26.254-10.467,38.267-3.993  c11.83,6.374,14.262,15.062,12.909,25.975c1.988,0.683,3.868,1.519,5.512,2.484c5.464,3.208,4.591,6.788,3.961,8.179  c-1.226,2.709-4.613,4.583-7.706,4.51c0.184,0.147,0.376,0.298,0.576,0.456c0.884,0.698,1.887,1.489,2.979,2.51  c2.438,2.28,2.206,4.06,1.581,5.151c-1.744,3.048-8.701,3.295-10.718,2.698c-0.249-0.074-0.618-0.203-1.071-0.363  c-1.518-0.536-6.141-2.167-7.439-1.232c-0.078,0.057-0.286,0.205-0.276,0.844c0.016,1.096,1.129,1.559,3.488,2.287  c1.647,0.508,3.351,1.034,4.376,2.267c1.27,1.528,1.598,2.861,0.974,3.963c-0.928,1.635-3.601,2.014-8.665,1.23l-0.138-0.021  c-0.937-0.141-1.41-0.009-1.568,0.083c0.032,0.086,0.125,0.252,0.354,0.442c0.272,0.225,1.33,0.938,3.456,0.615  c2.125-0.32,4.109,0.355,5.186,1.762c0.756,0.989,0.934,2.204,0.474,3.248c-0.334,0.759-1.302,2.067-4.034,2.309  c-6.38,0.567-7.635,2.895-10.664,8.518l-0.116,0.215C55.781,92.129,48.849,94.505,42.282,94.506z M30.667,59.45  c0.855,2.145,1.611,4.192,1.972,6.164c1.134,6.195,0.747,11.461-1.296,17.607c-1.1,3.309,0.117,5.753,3.615,7.263  c7.503,3.24,18.479,0.303,20.893-4.173l0.116-0.214c3.101-5.756,4.973-9.229,12.801-9.926c1.225-0.108,1.709-0.496,1.803-0.708  c0.083-0.188-0.076-0.427-0.147-0.521c-0.358-0.469-1.267-0.94-2.64-0.733c-3.385,0.509-5.531-0.767-6.413-2.132  c-0.647-1.002-0.687-2.137-0.106-3.036c0.43-0.666,1.557-1.718,4.277-1.31l0.148,0.023c4.006,0.622,5.404,0.282,5.808,0.116  c-0.067-0.163-0.226-0.46-0.606-0.918c-0.512-0.617-1.826-1.022-3.096-1.414c-2.255-0.696-5.344-1.649-5.391-4.826  c-0.025-1.692,0.748-2.606,1.4-3.075c2.255-1.622,6.298-0.396,9.912,0.879c0.398,0.141,0.721,0.255,0.94,0.321  c1.771,0.524,6.85-0.125,7.609-1.452c0.228-0.398-0.41-1.211-1.082-1.84c-1.01-0.944-1.965-1.698-2.808-2.363  c-2.786-2.199-4.887-3.858-4.743-8.98c-0.009-0.926,0.099-1.987,0.362-3.203c0.279-1.287,0.51-2.515,0.696-3.688  c-2.097-0.578-4.261-0.97-6.328-1.141c1.124,1.285,1.777,2.815,1.889,4.518c0.231,3.482-1.923,7.045-5.122,8.472  c-2.908,1.296-5.999,0.585-8.477-1.954c-1.89-1.935-2.498-4.54-1.668-7.147c0.709-2.23,2.354-4.186,4.359-5.346  c-13.447-3.236-28.504-1.596-33.95,1.239c-1.389,0.723-2.312,2.323-2.532,4.389c-0.256,2.398,0.531,4.804,1.958,5.987  c0.004,0.004,0.01,0.008,0.015,0.011c0.046-0.254,0.102-0.508,0.168-0.76c1.608-6.127,4.755-7.65,6.488-8.012  c2.407-0.505,4.899,0.526,6.664,2.758c1.927,2.436,3.172,6.774,0.888,11.643C37.265,55.763,34.25,58.389,30.667,59.45z   M49.054,8.198c-7.212,0-14.535,2.502-20.878,7.393c-10.458,8.062-15.168,20.478-12.289,32.402  c1.235,5.115,5.171,8.738,10.028,9.229c0.328,0.033,0.653,0.051,0.974,0.056c-1.066-2.713-2.007-5.453-2.188-8.092  c-0.646-0.187-1.198-0.444-1.602-0.779c-2.125-1.762-3.271-5.04-2.918-8.349c0.317-2.98,1.764-5.348,3.969-6.497  c5.421-2.822,13.446-3.346,19.23-3.28c6.87,0.073,14.293,1.051,19.375,2.554c0.587,0.174,1.144,0.373,1.668,0.596  c3.253-0.197,7.019,0.25,10.625,1.202c1.361-12.88-3.466-18.45-11.533-22.796C58.989,9.398,54.048,8.198,49.054,8.198z   M27.448,49.567c0.271,2.323,1.204,4.857,2.21,7.376c2.969-0.785,5.442-2.919,6.942-6.12c1.762-3.755,0.865-7.02-0.561-8.823  c-1.116-1.412-2.611-2.082-3.995-1.791c-1.911,0.399-3.525,2.607-4.431,6.057c-0.051,0.193-0.093,0.39-0.127,0.589  c1.858,0.083,4.106-0.146,4.946-0.914c0.115-0.105,0.223-0.204-0.1-0.719c-0.396-0.631-0.207-1.464,0.425-1.86  c0.631-0.397,1.464-0.206,1.86,0.424c0.971,1.546,0.813,3.115-0.422,4.198C33.006,49.025,30.089,49.645,27.448,49.567z   M76.339,43.879c-0.035,1.632,0.371,3.303,2.016,3.846c2.169,0.717,5.438-0.692,6.365-2.739c0.903-1.996-1.062-3.679-2.869-4.74  c-1.37-0.804-2.915-1.511-4.549-2.104c-0.192,1.121-0.417,2.264-0.67,3.429c-0.052,0.241-0.103,0.505-0.147,0.783  c0,0.001,0,0.002,0,0.003C76.416,42.91,76.368,43.415,76.339,43.879z M63.936,36.169c-0.499,0.048-0.98,0.114-1.443,0.199  c-2.119,0.388-4.241,2.327-4.936,4.51c-0.371,1.167-0.494,2.885,1.028,4.444c1.667,1.709,3.601,2.196,5.447,1.375  c2.167-0.967,3.685-3.474,3.529-5.831C67.43,38.888,66.161,37.263,63.936,36.169z"></path></g><g id="SvgjsG28971" featurekey="nameFeature-0" transform="matrix(3.2479203046312946,0,0,3.2479203046312946,101.43374934984352,173.2826044023058)" fill="url(#SvgjsLinearGradient28978)"><path d="M30.43 10.742 q-1.09375 0.3515625 -2.05078125 0.3515625 t-1.7773 0.39063 q-0.3125 0.4296875 -0.5078125 0.64453125 t-0.50781 0.13672 q-0.3125 0.4296875 -0.48828125 0.6640625 t-0.25391 0.56641 t-0.13672 0.70313 t-0.17578 0.64453 q0.1171875 0.078125 0.13671875 0.3125 t-0.058594 0.3125 q0.1953125 0.78125 0.33203125 1.7578125 t0.33203 1.7969 q-0.078125 0.46875 0.01953125 0.99609375 t0.13672 1.0742 q0 0.5859375 0.0390625 1.328125 t-0.078125 1.2891 q0.234375 0.1953125 0.1953125 0.5078125 t-0.039063 0.50781 q-0.1953125 0.1953125 -0.1171875 0.25390625 t0.15625 0.17578 q-0.1171875 0.15625 -0.078125 0.29296875 t-0.11719 0.25391 q0.0390625 0.15625 0.078125 0.25390625 t0.078125 0.17578 q-0.1953125 0.703125 -0.1171875 1.54296875 t-0.15625 1.543 q0.078125 0.15625 0.078125 0.52734375 t-0.15625 0.48828 q0.078125 0.15625 0.05859375 0.4296875 t-0.097656 0.46875 q0.0390625 0.625 0.01953125 1.23046875 t-0.25391 0.91797 q0.15625 0.4296875 -0.0390625 0.76171875 t-0.11719 0.64453 q-0.234375 0.1953125 -0.25390625 0.3125 t-0.29297 0.27344 q0.078125 0.625 -0.33203125 0.9765625 t-0.72266 0.66406 q-0.15625 0.3515625 -0.2734375 0.52734375 t-0.27344 0.29297 q-0.1953125 0 -0.2734375 -0.0390625 t-0.15625 -0.039063 q-0.15625 -0.15625 -0.25390625 -0.0390625 t-0.19531 0.25391 t-0.23438 0.21484 t-0.33203 0 q-0.1171875 0.15625 -0.15625 0.2734375 t-0.11719 0.19531 q-0.46875 0.1171875 -0.91796875 0.29296875 l-0.89844 0.35156 t-0.89844 0.27344 t-0.87891 0.019531 q-0.15625 0.234375 -0.29296875 0.37109375 t-0.48828 0.21484 q-0.390625 0.0390625 -0.80078125 0 t-0.68359 0.19531 q-0.9375 -0.0390625 -1.54296875 -0.05859375 t-1.1523 -0.097656 q-0.1953125 0.0390625 -0.41015625 0.05859375 t-0.29297 -0.17578 q-0.546875 -0.0390625 -1.09375 -0.33203125 t-1.1719 -0.25391 q-0.46875 0.078125 -0.6640625 -0.05859375 t-0.39063 -0.25391 q0.15625 -0.234375 -0.0390625 -0.234375 t-0.19531 -0.19531 q-0.859375 -0.3515625 -1.484375 -0.64453125 t-0.97656 -0.95703 q-0.625 -0.3515625 -0.95703125 -0.99609375 t-0.76172 -1.1914 q-0.1171875 -0.4296875 -0.234375 -0.9375 t-0.35156 -0.82031 q-0.234375 -0.78125 -0.13671875 -1.54296875 t0.019531 -1.3086 q0.3515625 -0.703125 0.21484375 -1.50390625 t-0.019531 -1.6602 q-0.1171875 -0.078125 -0.3515625 -0.05859375 t-0.35156 0.019531 q-0.078125 -0.4296875 0.25390625 -0.64453125 t0.52734 -0.52734 q-0.0390625 -0.390625 0.1171875 -0.5078125 q-0.1171875 -0.1953125 -0.05859375 -0.37109375 t-0.13672 -0.29297 q0.15625 -0.3125 0.1953125 -0.8984375 t-0.27344 -0.82031 q0.15625 -0.546875 0.0390625 -1.23046875 t-0.11719 -1.3477 q0 -0.234375 0.0390625 -0.48828125 t0.039063 -0.48828 q0 -0.3125 -0.1171875 -0.60546875 t-0.078125 -0.48828 q0.15625 -0.46875 0.078125 -0.5859375 t-0.078125 -0.3125 q-0.0390625 -0.2734375 0.078125 -0.5078125 t0.039063 -0.50781 q-0.078125 -0.078125 -0.1171875 -0.1953125 t-0.11719 -0.19531 q0.15625 -0.3515625 0.17578125 -0.46875 t-0.097656 -0.11719 q-0.078125 0.1171875 -0.2734375 0.09765625 t-0.27344 -0.058594 q0.15625 -0.2734375 0.3515625 -0.46875 t0.35156 -0.42969 q0.0390625 -0.1953125 -0.01953125 -0.29296875 t-0.097656 -0.25391 q0.1171875 -0.4296875 0.05859375 -0.48828125 t-0.058594 -0.13672 q0.1171875 -0.5859375 -0.234375 -1.171875 t-0.70313 -1.0156 q-0.8203125 -0.2734375 -1.93359375 -0.21484375 t-1.8945 0.21484 q-0.0390625 -0.15625 -0.13671875 -0.234375 t-0.17578 -0.15625 q-0.1171875 -0.4296875 0.25390625 -0.5859375 t0.9375 -0.15625 t1.1719 0.058594 t0.95703 0.058594 q0.9765625 0 1.6015625 -0.0390625 t1.4844 0.11719 q0.8203125 -0.078125 1.73828125 -0.01953125 t1.7383 -0.21484 q0.390625 0.1171875 0.9375 -0.078125 t0.97656 0.039063 q0.5859375 -0.1171875 1.1328125 -0.13671875 t1.0547 -0.019531 l1.0156 0 t1.0156 -0.11719 q0.1953125 0.078125 0.3515625 0.13671875 t0.42969 0.019531 q0.3515625 0.703125 -0.0390625 1.2890625 q-0.546875 -0.234375 -0.78125 -0.2734375 t-0.50781 -0.019531 t-0.52734 0.019531 t-0.41016 -0.19531 q-0.8203125 -0.0390625 -1.25 0.3125 t-0.78125 0.74219 q-0.15625 0.3125 -0.3125 0.52734375 t-0.54688 0.29297 q0 0.234375 0.13671875 0.33203125 t0.21484 0.29297 q0 0.3515625 -0.2734375 0.5078125 t-0.11719 0.54688 q-0.078125 0.390625 0.3125 0.46875 l-0.11719 0.46875 q-0.2734375 0.3125 -0.21484375 0.33203125 t0.058594 0.13672 q0.0390625 0.390625 0.1171875 0.64453125 t-0.23438 0.44922 q0.15625 0.4296875 0.09765625 0.859375 t0.019531 0.82031 q0.0390625 0.3125 0.17578125 0.60546875 t0.13672 0.48828 q-0.3125 0.546875 -0.25390625 0.703125 t-0.058594 0.35156 q0.3125 0.6640625 0.09765625 1.0546875 t-0.13672 1.0156 q0.1953125 0.2734375 0.46875 0.234375 q0 0.390625 -0.15625 0.60546875 t-0.3125 0.29297 q0 0.46875 -0.01953125 1.171875 t0.019531 1.1328 l0.3125 0.54688 q-0.234375 0.1953125 -0.2734375 0.4296875 t-0.058594 0.48828 t0 0.46875 t0.13672 0.33203 q-0.3125 1.09375 -0.29296875 1.85546875 t0.17578 1.4648 q-0.078125 0.390625 -0.05859375 0.78125 t0.21484 0.70313 q0.0390625 1.0546875 0.13671875 1.9140625 t0.52734 1.6016 q0.390625 0.390625 0.6640625 0.64453125 t0.625 0.44922 t0.70313 0.37109 t0.66406 0.41016 q0.859375 0.1953125 1.81640625 0.29296875 t1.6992 -0.17578 q1.2109375 0.078125 2.20703125 -0.3125 t1.8945 -0.74219 q1.3671875 -0.9765625 2.40234375 -2.3828125 t1.2695 -3.3984 q0.0390625 -0.546875 0.1171875 -1.15234375 t0.039063 -1.1523 q-0.0390625 -0.46875 0.09765625 -0.9765625 t0.097656 -1.0547 q-0.078125 -0.6640625 -0.0390625 -1.3671875 t0.039063 -1.3281 q-0.0390625 -0.546875 -0.05859375 -1.09375 t-0.13672 -0.9375 q0.0390625 -0.1953125 0.01953125 -0.37109375 t0.058594 -0.37109 q-0.15625 -0.78125 -0.15625 -1.71875 t-0.078125 -1.875 q-0.078125 -1.2109375 -0.46875 -2.1875 t-0.70313 -1.9922 q-0.15625 -0.5078125 -0.25390625 -0.76171875 t-0.21484 -0.44922 q-0.078125 -0.3515625 -0.4296875 -0.3515625 q-0.078125 -0.15625 -0.13671875 -0.25390625 t0.019531 -0.25391 q-0.15625 -0.3125 -0.46875 -0.44921875 t-0.50781 -0.41016 q-0.46875 -0.1953125 -0.78125 -0.21484375 t-0.66406 -0.058594 q-0.3515625 -0.078125 -0.7421875 -0.234375 t-0.82031 0 q0.078125 -0.234375 0.0390625 -0.390625 t0 -0.3125 q0.1953125 0.078125 0.3125 0 t0.27344 -0.15625 q0.4296875 -0.078125 0.859375 0.09765625 t0.74219 0.13672 q0.703125 -0.1953125 1.0546875 -0.15625 t0.66406 0 q0.1953125 0 0.4296875 0.05859375 t0.39063 0.058594 q0.6640625 -0.2734375 1.07421875 -0.1953125 t0.76172 0 q0.546875 -0.078125 1.1328125 0.1171875 t1.0156 -0.11719 q0.46875 0.1953125 0.859375 0.0390625 t0.82031 -0.039063 q0.46875 0.078125 0.859375 -0.01953125 t0.70313 -0.019531 q0.15625 0.15625 0.234375 0.3515625 t-0.039063 0.42969 z M25.547 11.055 l-0.46875 0.15625 q-0.3515625 -0.1171875 -0.56640625 -0.0390625 t-0.41016 0.27344 q-0.1171875 -0.1171875 -0.17578125 -0.21484375 t-0.13672 -0.097656 q-0.078125 0.5078125 -0.15625 0.625 q-0.1171875 -0.3515625 -0.01953125 -0.390625 t0.058594 -0.23438 q-0.2734375 0.15625 -0.48828125 0.1953125 t-0.17578 0.35156 q0.4296875 0.1953125 0.3515625 0.3515625 t0.11719 0.11719 q0.0390625 0.15625 0.05859375 0.1953125 t-0.058594 0.23438 q0.234375 0.2734375 0.4296875 0.29296875 t0.19531 -0.17578 q0.234375 -0.1953125 0.1171875 -0.234375 t-0.11719 -0.19531 q0.234375 0 0.234375 0.13671875 t0.11719 0.21484 q0.15625 -0.15625 0.0390625 -0.390625 t0.039063 -0.35156 q0.390625 0 0.4296875 -0.01953125 t0 -0.097656 q0.0390625 -0.546875 0.2734375 -0.5078125 t0.3125 -0.19531 z M22.695 11.015999999999998 q-0.5078125 -0.1953125 -0.8203125 -0.0390625 q0.1171875 0.234375 0.4296875 0.234375 t0.39063 -0.19531 z M24.063 13.437000000000001 q-0.078125 0.078125 -0.15625 0.17578125 t-0.11719 0.29297 q0.15625 -0.078125 0.2734375 -0.21484375 t0 -0.25391 z M5.625 11.602 q-0.1171875 -0.1171875 -0.3125 0.0390625 t-0.27344 -0.11719 q0.1953125 0.0390625 0.2734375 -0.078125 t0.19531 -0.19531 q-0.234375 -0.15625 -0.41015625 -0.09765625 t-0.33203 0.17578 t-0.33203 0.25391 t-0.37109 0.17578 q0 0.15625 -0.21484375 0.25390625 t-0.058594 0.21484 q0.234375 -0.15625 0.56640625 -0.2734375 t0.56641 -0.11719 q0.1171875 0.1953125 0.3125 0.05859375 t0.39063 -0.29297 z M7.7734 14.765999999999998 q-0.234375 -0.0390625 -0.33203125 0.078125 t-0.17578 0.19531 q0.15625 -0.1171875 0.3515625 -0.09765625 t0.15625 -0.17578 z M3.9453 11.640999999999998 q-0.15625 -0.15625 -0.0390625 -0.46875 q-0.1953125 -0.078125 -0.41015625 -0.0390625 t-0.33203 0.11719 q0.1171875 0.1953125 0.13671875 0.46875 t0.33203 0.23438 q0.078125 -0.078125 0.13671875 -0.15625 t0.17578 -0.15625 z M10.156 10.780999999999999 q-0.1953125 -0.078125 -0.33203125 -0.01953125 t-0.27344 0.15625 t-0.27344 0.17578 t-0.29297 0.039063 q-0.7421875 0.5078125 -1.2109375 0.8984375 t-1.0156 0.70313 l-0.27344 0.35156 q-0.390625 -0.0390625 -0.60546875 0.21484375 t-0.52734 0.21484 q-0.0390625 0.1171875 -0.25390625 0.25390625 t-0.29297 -0.019531 q0.3125 -0.234375 0.6640625 -0.4296875 t0.58594 -0.54688 q0.2734375 -0.2734375 0.5078125 -0.1171875 q0.234375 -0.1171875 0.4296875 -0.29296875 t0.35156 -0.29297 q-0.078125 -0.078125 -0.1953125 -0.0390625 t-0.23438 0 q0.15625 -0.234375 0.234375 -0.1953125 t0.23438 0 q0.15625 -0.3125 0.13671875 -0.390625 t0.13672 -0.039063 q0.2734375 -0.078125 0.44921875 -0.17578125 t0.37109 -0.21484 q-1.015625 0.2734375 -1.85546875 0.87890625 t-1.7383 1.1133 l0.15625 -0.3125 t0.19531 0 q0.15625 -0.3125 0.390625 -0.5078125 t0.70313 -0.19531 q0.078125 -0.234375 0.3125 -0.3125 q0.078125 -0.3125 0.234375 -0.33203125 t0.11719 -0.21484 q-0.78125 0.15625 -1.34765625 0.6640625 t-1.2695 0.82031 q-0.15625 -0.1171875 0 -0.21484375 t0.23438 -0.21484 q-0.078125 -0.078125 -0.29296875 -0.01953125 t-0.39063 0.19531 t-0.25391 0.27344 t0.11719 0.25391 q0.078125 0.3515625 0.0390625 0.4296875 t-0.11719 0.15625 q0.3125 0 0.52734375 -0.2734375 t0.52734 -0.078125 q-0.15625 0.15625 -0.546875 0.234375 q-0.234375 0.3125 -0.1171875 0.3515625 t0 0.078125 q-0.1171875 0.15625 -0.21484375 0.25390625 t-0.17578 0.29297 q0.390625 0.1953125 0.21484375 0.21484375 t-0.13672 0.25391 q0.078125 0.078125 0.0390625 0.21484375 l-0.078125 0.27344 t-0.039063 0.25391 t0.15625 0.23438 q-0.15625 0.46875 -0.1953125 0.625 t0.039063 0.35156 q0.1953125 -0.078125 0.41015625 -0.17578125 t0.41016 -0.21484 q-0.0390625 0.1953125 0.09765625 0.21484375 t0.13672 0.17578 q-0.4296875 0.1953125 -0.3515625 0.21484375 t0 0.097656 q-0.2734375 -0.078125 -0.29296875 0.0390625 t-0.21484 0.078125 q0.078125 0.15625 -0.01953125 0.29296875 t-0.17578 0.33203 q0.1171875 0 0.17578125 -0.05859375 l0.11719 -0.11719 t0.11719 -0.097656 t0.21484 0.039063 q0.3125 -0.078125 0.4296875 0.3125 q-0.546875 0.1171875 -0.7421875 0.44921875 t-0.23438 0.74219 t0 0.89844 t-0.078125 0.87891 q0.15625 0.234375 0.09765625 0.546875 t0.097656 0.58594 q0.546875 -0.1953125 0.87890625 -0.546875 t0.91797 -0.50781 q0 -0.3125 0.25390625 -0.3515625 t0.29297 -0.27344 q0.3125 -0.078125 0.33203125 -0.234375 t0.25391 -0.23438 q0.1953125 -0.078125 0.3125 -0.13671875 t0.15625 0.13672 q-0.546875 0.1953125 -0.68359375 0.4296875 t-0.21484 0.42969 q0.7421875 -0.5078125 1.40625 -0.83984375 t1.3281 -0.64453 q-0.0390625 -0.1953125 -0.1171875 -0.29296875 t0 -0.29297 q-0.078125 -0.1171875 -0.17578125 -0.0390625 t-0.25391 0 q-0.078125 0.1953125 -0.29296875 0.3125 t-0.44922 0.19531 q-0.2734375 0.5078125 -0.4296875 0.5078125 q-0.1171875 -0.1171875 0.01953125 -0.25390625 t0.23438 -0.27344 t0.21484 -0.23438 t0.3125 -0.058594 q0.0390625 -0.1171875 0.078125 -0.21484375 t0.078125 -0.21484 q0.4296875 -0.078125 0.546875 -0.4296875 q-0.1171875 -0.078125 -0.25390625 0.078125 t-0.29297 0.039063 q-0.1953125 0.2734375 -0.25390625 0.21484375 t-0.13672 -0.019531 q-0.078125 0.3125 -0.390625 0.234375 q-0.078125 0.15625 -0.13671875 0.29296875 t-0.17578 0.21484 l-0.35156 -0.058594 t-0.19531 -0.21484 q0.5859375 0.078125 0.546875 -0.1953125 q-0.078125 -0.15625 0.0390625 -0.21484375 t0.3125 -0.097656 q0.15625 -0.4296875 0.3125 -0.390625 q0.1171875 0.234375 0.390625 0.1953125 q0 -0.234375 0.09765625 -0.2734375 t0.25391 -0.058594 t0.25391 -0.078125 t0.097656 -0.29297 q-0.3125 -0.234375 -0.234375 -0.29296875 t0.11719 -0.17578 q-0.546875 -0.0390625 -0.5859375 0.078125 t-0.19531 0.15625 q0.0390625 -0.3125 0 -0.3515625 t-0.039063 -0.11719 q0.1171875 0.0390625 0.15625 -0.01953125 t0.039063 -0.13672 t0.019531 -0.13672 t0.13672 -0.019531 q0.3515625 0.234375 0.4296875 -0.0390625 q-0.078125 -0.1953125 -0.078125 -0.41015625 l0 -0.41016 q-0.078125 -0.078125 -0.1953125 -0.078125 t-0.23438 -0.039063 q-0.1171875 -0.1171875 0.01953125 -0.234375 t0.41016 -0.19531 q-0.1171875 -0.1953125 0.0390625 -0.234375 t0.11719 -0.3125 q-0.15625 0.0390625 -0.234375 0.13671875 t-0.15625 0.21484 q-0.1953125 -0.0390625 -0.2734375 0.05859375 t-0.19531 0.17578 q-0.15625 0.078125 -0.37109375 0.234375 t-0.019531 0.3125 q0.0390625 -0.1953125 0.25390625 -0.09765625 t0.21484 0.21484 q-0.390625 0.1171875 -0.33203125 0.13671875 t0.019531 0.17578 q-0.390625 0.078125 -0.390625 0.01953125 t-0.078125 -0.058594 q-0.1953125 0.234375 -0.5078125 0.390625 t-0.625 0.39063 q-0.1171875 -0.2734375 -0.13671875 -0.390625 t0.019531 -0.19531 q0.5078125 -0.15625 0.5078125 0.0390625 l0.39063 -0.19531 t0.15625 0 q0.0390625 -0.15625 0.13671875 -0.2734375 t0.019531 -0.19531 q-0.1953125 0.1171875 -0.3515625 0.2734375 t-0.39063 0.23438 q-0.1171875 -0.15625 0 -0.2734375 t0 -0.19531 q-0.078125 0.078125 -0.13671875 0.15625 t-0.25391 0.039063 q0.15625 -0.3125 0.3125 -0.37109375 t0.23438 -0.13672 q0.390625 -0.4296875 0.46875 -0.52734375 t0.15625 -0.25391 q0.2734375 0.1171875 0.46875 -0.0390625 q0.2734375 -0.390625 0.5859375 -0.5859375 t0.58594 -0.39063 q0.0390625 -0.234375 0 -0.33203125 t-0.039063 -0.17578 q-0.1953125 0 -0.17578125 0.1953125 t-0.25391 0.11719 q0 -0.1953125 0.1171875 -0.29296875 t0.23438 -0.17578 t0.19531 -0.17578 t0.039063 -0.25391 q-0.625 -0.1171875 -1.015625 0.3515625 q-0.15625 0.3515625 -0.37109375 0.546875 t-0.52734 0.078125 q0.2734375 -0.1953125 0.48828125 -0.25390625 t0.37109 -0.33203 q-0.2734375 0.078125 -0.4296875 0.15625 t-0.42969 -0.078125 l0.39063 -0.35156 q0.2734375 -0.078125 0.4296875 -0.234375 t0.35156 -0.27344 l0.58594 -0.29297 t0.58594 -0.33203 q0.15625 -0.078125 0.3515625 -0.13671875 t0.23438 -0.33203 z M4.375 16.719 q-0.3515625 0.0390625 -0.41015625 0.05859375 t-0.019531 0.097656 q0.078125 -0.0390625 0.21484375 -0.05859375 t0.21484 -0.097656 z M9.1406 20.469 q-0.234375 0.078125 -0.41015625 0.29296875 t-0.48828 0.13672 q0.078125 0.3125 -0.13671875 0.3515625 t-0.37109 0.15625 q-0.234375 0.4296875 0 0.4296875 q0.3125 -0.234375 0.60546875 -0.46875 t0.68359 -0.35156 q0.0390625 -0.1953125 0.0390625 -0.2734375 t0.078125 -0.27344 z M7.6563 22.109 l-0.3125 -0.3125 q-0.1953125 0.234375 -0.29296875 0.234375 t-0.058594 0.15625 q0.15625 0.078125 0.33203125 0 t0.33203 -0.078125 z M9.1016 19.727 q-0.3515625 0.0390625 -0.56640625 0.17578125 t-0.42969 0.3125 t-0.42969 0.33203 t-0.52734 0.19531 q-0.5078125 0.5078125 -0.80078125 0.56640625 t-0.64453 0.21484 q-0.15625 0.1171875 -0.2734375 0.37109375 t-0.39063 0.17578 q-0.078125 0.234375 -0.3125 0.4296875 t-0.42969 0.37109 t-0.29297 0.42969 t0.097656 0.60547 q0.8984375 -0.6640625 1.796875 -1.2890625 t1.6406 -1.4453 q0.4296875 -0.3515625 0.87890625 -0.625 t0.68359 -0.82031 z M8.9844 21.641 q-0.2734375 -0.078125 -0.41015625 0.01953125 t-0.25391 0.25391 q-0.15625 -0.1953125 -0.25390625 -0.01953125 t-0.25391 0.17578 q-0.1171875 0.3515625 -0.21484375 0.2734375 t-0.17578 0 q-0.1953125 0.3125 -0.5859375 0.5078125 l-0.78125 0.39063 q0.0390625 0.3125 -0.09765625 0.3515625 t-0.27344 0.097656 t-0.25391 0.13672 t-0.19531 0.27344 q-0.3515625 0.234375 -0.625 0.41015625 t-0.58594 0.41016 q0 0.390625 0.0390625 0.5078125 q0.1953125 -0.0390625 0.29296875 -0.13671875 t0.29297 -0.019531 q0.078125 -0.2734375 0.41015625 -0.41015625 t0.56641 -0.33203 q0.0390625 -0.1953125 0.33203125 -0.390625 t0.48828 -0.19531 q0.5078125 -0.6640625 1.25 -1.15234375 t1.2891 -1.1523 z M9.1406 24.766 q-0.1953125 -0.3125 0 -0.6640625 q-0.4296875 -0.078125 -0.5859375 0.29296875 t-0.42969 0.52734 q-0.078125 -0.4296875 0.0390625 -0.4296875 t0.23438 -0.039063 q0 -0.234375 0.13671875 -0.33203125 l0.27344 -0.19531 t0.21484 -0.21484 t-0.039063 -0.39063 q-0.46875 -0.0390625 -0.5859375 0.3515625 q-0.15625 -0.0390625 -0.29296875 -0.01953125 t-0.25391 0.019531 q-0.234375 0.2734375 -0.33203125 0.41015625 t-0.25391 0.17578 q0.3515625 -0.546875 0.56640625 -0.64453125 t0.52734 -0.17578 q0.0390625 -0.234375 0.5078125 -0.3125 q0.1171875 -0.3125 0.15625 -0.46875 t-0.039063 -0.46875 q-0.15625 0.0390625 -0.21484375 0.17578125 t-0.33203 0.058594 q-0.078125 0.1953125 -0.13671875 0.3125 l-0.13672 0.27344 q-0.5859375 0.4296875 -1.09375 0.7421875 t-0.9375 0.78125 q-0.6640625 0.3515625 -0.91796875 0.5859375 t-0.56641 0.42969 q0.078125 0.3125 0.15625 0.33203125 t0.039063 0.097656 q-0.234375 0.078125 -0.3125 0.2734375 t-0.39063 0.19531 q-0.234375 0.3125 -0.25390625 0.6640625 t0.019531 0.82031 q0.46875 -0.15625 0.52734375 -0.21484375 t0.17578 -0.058594 q0 0.1953125 0.1953125 0.1953125 t0.35156 -0.11719 q-0.078125 0.3515625 -0.33203125 0.3515625 t-0.44922 0.23438 q-0.15625 0.3125 -0.4296875 0.4296875 q-0.0390625 0.1953125 -0.0390625 0.25390625 l0 0.25391 q0.1953125 0.078125 0.3125 -0.01953125 t0.21484 -0.21484 t0.21484 -0.21484 t0.3125 -0.097656 q0.1171875 -0.3515625 0.44921875 -0.48828125 t0.56641 -0.44922 q0.390625 0.0390625 0.46875 0.0390625 t0.15625 -0.039063 q-0.15625 -0.3125 -0.15625 -0.390625 t0.078125 -0.15625 q0.1953125 0.1171875 0.1171875 0.5078125 q0.1953125 0 0.3125 -0.05859375 t0.3125 -0.058594 q-0.1953125 0.4296875 -0.3515625 0.546875 q-0.3515625 0.1953125 -0.703125 0.1953125 q-0.1953125 0.3125 -0.1953125 0.46875 q-0.1953125 0.1171875 -0.3125 0.078125 t-0.078125 0.15625 q-0.3125 0.3125 -0.46875 0.37109375 t-0.23438 0.21484 q-0.4296875 0.390625 -0.60546875 0.52734375 t-0.33203 0.29297 t-0.23438 0.35156 t0.11719 0.46875 q0.3125 -0.3125 0.6640625 -0.56640625 t0.66406 -0.56641 q0.5859375 -0.5078125 1.09375 -0.859375 t0.9375 -0.78125 q0.078125 -0.0390625 0.234375 -0.01953125 t0.23438 -0.058594 q-0.078125 -0.390625 0.17578125 -0.41015625 t0.37109 -0.097656 q-0.078125 -0.1953125 0.0390625 -0.234375 t0.3125 -0.11719 q-0.078125 -0.2734375 0.1171875 -0.234375 t0.23438 -0.039063 q0 -0.1953125 0.0390625 -0.33203125 t0.11719 -0.21484 q-0.390625 -0.078125 -0.46875 -0.234375 q0.1171875 -0.078125 0.21484375 -0.21484375 t0.25391 -0.058594 q-0.234375 -0.46875 -0.3515625 -0.5078125 t-0.19531 -0.15625 q-0.46875 -0.15625 -0.5078125 -0.3125 q0.15625 0 0.234375 -0.01953125 t0.19531 0.058594 q0.390625 -0.15625 0.4296875 -0.3125 t0.23438 -0.23438 z M8.9453 27.93 q-0.4296875 -0.1953125 -0.56640625 -0.078125 t0.019531 0.27344 q-0.1953125 -0.0390625 -0.2734375 0.078125 t-0.27344 0.078125 q-0.3125 0.2734375 -0.44921875 0.44921875 t-0.37109 0.058594 q0.1171875 0.15625 0.33203125 0.15625 t0.37109 -0.078125 q0.46875 -0.3515625 0.60546875 -0.46875 t0.37109 -0.039063 q-0.078125 -0.2734375 0.078125 -0.25390625 t0.15625 -0.17578 z M7.0313 29.336 q-0.2734375 0 -0.37109375 0.09765625 t-0.17578 0.21484 q0.3125 0.0390625 0.3515625 -0.1171875 t0.19531 -0.19531 z M8.9453 28.672 q-0.234375 -0.1171875 -0.33203125 -0.0390625 t-0.21484 0 q-0.3515625 0.1953125 -0.2734375 0.21484375 t0.039063 0.17578 q-0.2734375 0.0390625 -0.41015625 0.25390625 t-0.52734 0.21484 q-0.15625 0.15625 -0.2734375 0.33203125 t-0.46875 0.097656 q-0.0390625 0.3125 -0.2734375 0.4296875 t-0.54688 0.19531 q-0.390625 0.5078125 -0.56640625 0.703125 t-0.35156 0.37109 t-0.37109 0.29297 t-0.50781 0.078125 q-0.15625 0.3125 0.0390625 0.60546875 t0.15625 0.64453 q0.390625 -0.1171875 0.3515625 -0.13671875 t0 -0.13672 q0.4296875 -0.1953125 0.37109375 -0.234375 t0.019531 -0.039063 q-0.078125 -0.3125 0.25390625 -0.41015625 t0.60547 -0.058594 q0 -0.390625 -0.05859375 -0.390625 t-0.058594 -0.078125 q0.234375 0.078125 0.21484375 -0.09765625 t0.17578 -0.17578 q0.234375 -0.15625 0.3515625 -0.1171875 t0.19531 -0.039063 q0.15625 -0.5078125 0.37109375 -0.72265625 t0.52734 -0.13672 q0.3515625 0.15625 0.41015625 0.17578125 t0.058594 -0.019531 q0.1953125 -0.3125 0.48828125 -0.48828125 t0.44922 0.019531 q0.0390625 -0.1953125 0.1171875 -0.4296875 t-0.11719 -0.39063 q-0.4296875 0.1953125 -0.546875 0.1171875 q0.078125 -0.078125 0.15625 -0.1953125 t0.23438 -0.11719 q0.1953125 -0.3125 0.2734375 -0.33203125 t0.039063 -0.13672 z M9.2188 33.8672 q-0.234375 0.3125 -0.3125 0.29296875 t-0.19531 -0.058594 q0.078125 0.46875 0.29296875 0.2734375 t0.21484 -0.50781 z M6.4453 31.875 q-0.234375 -0.234375 -0.4296875 -0.1171875 t-0.039063 0.3125 q0.1953125 -0.0390625 0.1953125 -0.17578125 t0.27344 -0.019531 z M13.359 39.60937 q0 -0.1953125 -0.234375 -0.21484375 t-0.27344 0.17578 q0.234375 0.078125 0.5078125 0.0390625 z M9.6875 36.0937 q-0.1953125 -0.078125 -0.21484375 -0.29296875 t-0.097656 -0.48828 q-0.078125 0.15625 -0.15625 0.37109375 t-0.35156 0.058594 q0.078125 0.1953125 0.01953125 0.2734375 t-0.13672 0.15625 q-0.1953125 -0.078125 -0.29296875 -0.0390625 t-0.25391 0.11719 q0.390625 -0.3515625 0.48828125 -0.390625 t0.17578 -0.11719 q0.1171875 -0.46875 0.234375 -0.56640625 t0.11719 -0.33203 q-0.1953125 0.078125 -0.37109375 0.09765625 t-0.33203 0.097656 q-0.1171875 0.1953125 -0.3515625 0.44921875 t-0.46875 0.46875 t-0.48828 0.27344 t-0.48828 -0.21484 q0.1171875 -0.078125 0.15625 -0.25390625 t0.3125 -0.097656 q0 -0.234375 0.1171875 -0.4296875 q0.390625 0 0.390625 -0.05859375 t0.039063 -0.097656 q0.0390625 -0.2734375 0.21484375 -0.52734375 t0.52734 -0.41016 q0.3125 -0.4296875 0.4296875 -0.546875 t0.19531 -0.27344 q-0.390625 0 -0.44921875 0.13671875 t-0.21484 -0.019531 q-0.3125 0.390625 -0.390625 0.390625 l-0.11719 0.50781 q-0.3515625 0.0390625 -0.46875 0.01953125 t-0.15625 0.058594 q0.1171875 0.1953125 -0.0390625 0.21484375 t-0.33203 -0.039063 t-0.3125 -0.19531 t0.019531 -0.25391 q0.15625 0.1953125 0.52734375 0.05859375 t0.64453 0.058594 q-0.234375 -0.390625 -0.15625 -0.46875 t0.078125 -0.23438 q-0.15625 0.15625 -0.5078125 0.0390625 q0.1953125 -0.1953125 0.37109375 -0.3515625 t0.44922 -0.15625 q-0.0390625 0.1953125 -0.1171875 0.234375 t-0.078125 0.15625 q0.6640625 -0.234375 0.78125 -0.46875 t0.50781 -0.11719 q-0.1171875 -0.3125 -0.1171875 -0.5078125 q-0.46875 -0.234375 -0.46875 -0.33203125 t0 -0.058594 q-0.46875 0.1171875 -0.44921875 0.17578125 t-0.019531 0.13672 q-0.3125 0.078125 -0.52734375 0.2734375 l-0.42969 0.39063 t-0.44922 0.35156 t-0.54688 0.11719 q0.0390625 -0.1953125 -0.15625 -0.17578125 t-0.19531 -0.17578 q0.390625 -0.1953125 0.5078125 -0.078125 t0.35156 0.078125 q0.1171875 -0.3125 0.1171875 -0.41015625 t-0.15625 -0.019531 q-0.1171875 -0.3515625 0.390625 -0.390625 q-0.0390625 -0.2734375 0.15625 -0.29296875 t0.27344 -0.13672 q0 0.1953125 -0.09765625 0.3125 t-0.13672 0.23438 l-0.3125 0.35156 q0.1953125 0.0390625 0.234375 -0.078125 t0.11719 -0.23438 q0.3125 0.078125 0.46875 -0.1953125 t0.46875 -0.27344 q0.234375 -0.078125 0.3125 -0.21484375 t0.15625 -0.058594 q0.234375 -0.390625 0.25390625 -0.5859375 t0.019531 -0.39063 q0 0.1171875 -0.13671875 0.21484375 t-0.21484 0.25391 q-0.0390625 -0.3515625 -0.13671875 -0.29296875 t-0.097656 -0.097656 q0.3515625 -0.2734375 0.234375 -0.390625 q-0.15625 0.1171875 -0.29296875 -0.05859375 t-0.21484 0.097656 q0.15625 0.15625 0 0.3515625 t-0.46875 0.078125 q-0.2734375 0.3125 -0.33203125 0.44921875 t-0.25391 0.019531 q-0.3125 0.1953125 -0.4296875 0.5859375 q-0.15625 0.1953125 -0.4296875 0.21484375 t-0.42969 0.21484 q-0.2734375 0.4296875 -0.5078125 0.56640625 t-0.15625 0.29297 q-0.1953125 0.1953125 -0.390625 0.2734375 t-0.39063 0.11719 q0.078125 0.703125 0.37109375 1.1328125 t0.60547 0.85938 q0.078125 -0.1953125 0.234375 -0.33203125 t0.3125 -0.058594 q0.15625 -0.1171875 0.13671875 -0.25390625 t0.097656 -0.13672 q0.390625 -0.1953125 0.546875 -0.3125 q0.078125 0.15625 0.21484375 0.1953125 t0.25391 0.11719 q-0.078125 0.1953125 -0.3125 0.1953125 t-0.3125 0.078125 q0.1953125 0.2734375 -0.0390625 0.29296875 t-0.19531 0.29297 q-0.1953125 0.0390625 -0.390625 0.21484375 t-0.27344 -0.13672 q-0.0390625 0.1953125 0 0.2734375 t0.039063 0.15625 q0.2734375 0.1171875 0.48828125 0.390625 t0.44922 0.50781 t0.48828 0.3125 t0.56641 -0.23438 q0.078125 -0.1171875 0.1953125 -0.13671875 t0.19531 -0.097656 q0.1953125 -0.2734375 0.234375 -0.3515625 t0.19531 0.078125 q-0.0390625 0 -0.17578125 0.234375 t-0.37109 0.19531 q0.1953125 0.3125 0.390625 0.15625 t0.37109 -0.29297 t0.37109 -0.17578 t0.35156 0.19531 q0.46875 0.15625 0.5078125 0.01953125 t0 -0.29297 l-0.078125 -0.3125 t-0.039063 -0.27344 z M10.195 38.5937 q-0.46875 -0.15625 -0.64453125 -0.1953125 t-0.29297 -0.19531 q-0.4296875 0.078125 -0.29296875 0.1953125 t0.33203 0.17578 t0.41016 0.097656 t0.37109 0.11719 z M8.75 37.9297 q0 -0.1953125 -0.25390625 -0.1953125 t-0.33203 -0.039063 q0.390625 0.1171875 0.4296875 0.17578125 t0.15625 0.058594 z M8.8281 12.578 q-0.0390625 0.078125 -0.17578125 0.09765625 t-0.21484 0.097656 q-0.234375 -0.1953125 0.01953125 -0.29296875 t0.37109 0.097656 z M7.1875 13.047 q-0.2734375 0.1171875 -0.4296875 0.15625 q0.15625 -0.0390625 0.234375 -0.15625 t0.19531 0 z M4.7656 13.828 q-0.078125 0.1953125 -0.25390625 0.37109375 t-0.37109 0.097656 q0.3125 -0.390625 0.625 -0.46875 z M7.6953 17.266 q-0.546875 -0.0390625 -0.6640625 0.2734375 q-0.078125 -0.234375 0.09765625 -0.390625 t0.48828 -0.11719 z M5.5078 16.094 q-0.078125 0.1171875 -0.13671875 0.1953125 t-0.13672 0.15625 q-0.3125 -0.3515625 -0.13671875 -0.37109375 t0.25391 -0.21484 z M6.875 17.695 q-0.390625 0.1953125 -0.5078125 0.2734375 t-0.11719 0.27344 q0.078125 -0.546875 0.625 -0.546875 z M6.2109 16.758 q-0.3125 0.1171875 -0.68359375 0.390625 t-0.68359 0.50781 q-0.078125 -0.078125 -0.078125 -0.234375 t-0.15625 -0.19531 q0.2734375 -0.1171875 0.3125 -0.3125 q0.3125 0.0390625 0.41015625 -0.17578125 t0.37109 -0.25391 q0.546875 0.15625 0.5078125 0.2734375 z M6.8359 19.297 q-0.1171875 -0.078125 -0.234375 0 t-0.23438 0 q0.078125 -0.234375 0.13671875 -0.29296875 t0.25391 -0.019531 z M6.4453 19.492 q-0.3125 0.15625 -0.37109375 0.13671875 t-0.13672 0.058594 q0 0.1953125 -0.21484375 0.234375 t-0.37109 0.11719 q0 -0.1953125 0.078125 -0.25390625 t0.11719 -0.21484 q0.3125 0.1171875 0.3515625 0 t0.15625 0 z M5.5078 18.789 q-0.390625 0.234375 -0.46875 0.37109375 t-0.15625 -0.097656 q0.2734375 -0.3515625 0.3515625 -0.3125 t0.27344 0.039063 z M5.4297 20.234 q-0.3515625 0.0390625 -0.546875 0.46875 q-0.1953125 -0.0390625 -0.25390625 0.05859375 t-0.17578 0.13672 q-0.234375 -0.2734375 -0.17578125 -0.3125 t0.13672 -0.039063 t0.13672 -0.039063 t0.058594 -0.19531 q0.234375 0.0390625 0.2734375 -0.1953125 t0.35156 -0.19531 z M8.7109 25.977 q-0.390625 -0.078125 -0.37109375 -0.1171875 t0.019531 -0.19531 q0.15625 0.0390625 0.21484375 0.13671875 t0.13672 0.17578 z M8.0469 24.922 q-0.1171875 0.2734375 -0.25390625 0.2734375 t-0.097656 0.19531 q-0.15625 -0.0390625 -0.46875 0.078125 q0.234375 -0.390625 0.37109375 -0.48828125 t0.37109 -0.097656 z M6.5625 24.609 q-0.1953125 0.3515625 -0.3125 0.390625 t-0.23438 0.058594 t-0.21484 0.058594 t-0.097656 0.19531 q-0.5078125 0.1171875 -0.546875 0 q0.4296875 -0.078125 0.703125 -0.33203125 t0.70313 -0.37109 z M8.4375 26.25 q-0.0390625 0.1171875 -0.15625 0.13671875 l-0.23438 0.039063 t-0.21484 0.078125 t-0.058594 0.21484 q-0.3515625 0.1953125 -0.5859375 0.37109375 t-0.46875 0.37109 q0 -0.390625 0.21484375 -0.546875 t0.41016 -0.39063 q0.3125 -0.1171875 0.5078125 -0.21484375 t0.58594 -0.058594 z M8.3984 27.031 q-0.3125 0.234375 -0.5859375 0.1171875 q-0.0390625 0.390625 -0.13671875 0.3125 t-0.13672 0.19531 q-0.15625 -0.0390625 -0.234375 -0.078125 t-0.078125 -0.23438 q0.2734375 -0.0390625 0.41015625 -0.1953125 t0.29297 -0.3125 q0.1171875 0.0390625 0.1953125 0.1171875 t0.27344 0.078125 z M8.0859 25.547 q-0.3125 0.234375 -0.6640625 0.41015625 t-0.42969 0.52734 q-0.3125 0.234375 -0.46875 0.37109375 t-0.35156 0.25391 q-0.390625 -0.2734375 -0.546875 -0.3125 t-0.11719 -0.23438 q0.1953125 -0.0390625 0.3515625 -0.09765625 t0.35156 -0.097656 q0.15625 -0.3515625 0.33203125 -0.5078125 t0.29297 -0.35156 q0.3125 0.078125 0.625 0 t0.625 0.039063 z M8.2422 29.844 q-0.4296875 0.078125 -0.5078125 0.1171875 l-0.15625 0.078125 q0.0390625 -0.1953125 0.17578125 -0.234375 t0.21484 -0.15625 z M5.7813 27.422 q-0.2734375 -0.078125 -0.3515625 0.05859375 t-0.27344 0.21484 q-0.3125 0.0390625 -0.4296875 -0.0390625 t-0.19531 -0.11719 q0.0390625 -0.1953125 0.15625 -0.25390625 t0.27344 -0.097656 q0.1171875 -0.1171875 0.17578125 -0.29296875 t0.25391 -0.17578 q0.1953125 0.390625 0.1171875 0.4296875 z M8.3984 31.1328 q-0.234375 0.1953125 -0.3125 0.3515625 t-0.27344 0.039063 q-0.15625 0.1171875 -0.0390625 -0.078125 t0.42969 -0.15625 z M8.3594 32.5781 q0 0.3515625 -0.3515625 0.2734375 q0.078125 -0.2734375 0.3515625 -0.2734375 z M7.1875 33.8672 q-0.15625 0 -0.2734375 0.09765625 t-0.19531 0.019531 q0.1171875 -0.234375 0.46875 -0.3125 l0 0.19531 z M6.3281 33.5937 q-0.3515625 0.3515625 -0.46875 0.37109375 t-0.078125 0.17578 q-0.234375 0.1171875 -0.29296875 0.13671875 t-0.058594 0.21484 q-0.4296875 0.078125 -0.4296875 -0.05859375 t-0.15625 -0.097656 q0 -0.5078125 0.2734375 -0.5078125 q-0.0390625 -0.234375 0.234375 -0.33203125 t0.39063 -0.29297 q-0.0390625 0.3125 0.17578125 0.29296875 t0.41016 0.097656 z M59.5699375 24.453 q0.1171875 0.546875 -0.2734375 0.625 t-0.91797 0.058594 t-0.99609 0 t-0.50781 0.44922 q-0.234375 0 -0.4296875 0.09765625 t-0.35156 0.21484 t-0.33203 0.21484 t-0.33203 0.058594 q-0.078125 0.1953125 -0.234375 0.29296875 t-0.33203 0.23438 t-0.3125 0.33203 t-0.097656 0.50781 q0.15625 0.1953125 0.3125 0.1171875 t0.3125 -0.19531 t0.35156 -0.17578 t0.39063 0.097656 q-0.3125 0.5078125 -0.56640625 0.703125 t-0.52734 0.23438 q-0.1953125 0.234375 -0.21484375 0.7421875 t0.17578 0.74219 q-0.2734375 0.78125 -0.13671875 1.6015625 t0.097656 1.7188 q0.078125 0.1171875 0.15625 0.17578125 t0.11719 0.21484 q-0.078125 0.1953125 -0.1953125 0.37109375 t-0.11719 0.48828 q0 1.015625 0.0390625 1.7578125 t0.078125 1.6797 q-0.0390625 0.859375 -0.078125 1.3671875 t0.039063 1.0547 q-0.5078125 0.15625 -0.546875 0.0390625 t-0.11719 -0.19531 q-0.0390625 -0.546875 -0.13671875 -0.99609375 t-0.097656 -0.87891 q-0.078125 -0.2734375 -0.33203125 -0.4296875 t-0.56641 -0.35156 q-0.15625 -0.078125 -0.2734375 -0.21484375 t-0.27344 -0.21484 q-0.625 -0.15625 -0.72265625 -0.234375 t-0.41016 -0.11719 q-0.1953125 0 -0.37109375 -0.0390625 t-0.37109 -0.039063 q-0.3515625 0.0390625 -0.7421875 0.21484375 t-0.78125 0.25391 l-0.83984 0.83984 t-0.76172 0.87891 q-0.390625 0.234375 -0.625 0.4296875 t-0.46875 0.23438 q-0.0390625 0.234375 -0.2734375 0.390625 t-0.54688 0.21484 t-0.66406 0.097656 t-0.58594 0.039063 q-0.46875 0.1953125 -0.6640625 0.25390625 t-0.46875 0.21484 q-0.4296875 -0.078125 -0.9375 -0.078125 t-1.0156 -0.19531 q-0.15625 -0.078125 -0.33203125 -0.21484375 t-0.48828 -0.13672 t-0.58594 0.078125 t-0.58594 0.039063 l-0.37109 0 t-0.37109 -0.039063 t-0.29297 -0.13672 t-0.25391 -0.17578 q-0.1953125 -0.078125 -0.44921875 -0.09765625 t-0.44922 -0.097656 q-0.15625 -0.078125 -0.1953125 -0.1953125 t-0.23438 -0.11719 q-0.5859375 -0.5859375 -1.2890625 -0.87890625 t-1.1719 -0.76172 q-0.1953125 0.0390625 -0.3515625 0.01953125 t-0.35156 -0.058594 q0.15625 -0.625 -0.21484375 -0.99609375 t-0.68359 -0.48828 q-0.1171875 -0.3125 -0.3125 -0.546875 t-0.41016 -0.46875 t-0.37109 -0.46875 t-0.15625 -0.58594 q-0.078125 -0.15625 -0.1953125 -0.25390625 t-0.23438 -0.17578 q0 -0.4296875 -0.234375 -0.78125 t-0.35156 -0.74219 q-0.0390625 -0.1171875 -0.01953125 -0.25390625 t-0.019531 -0.25391 q-0.078125 -0.2734375 -0.234375 -0.52734375 t0.039063 -0.64453 q-0.078125 -0.1171875 -0.234375 -0.15625 t-0.27344 -0.11719 q0.0390625 -0.5078125 0.05859375 -0.625 t0.13672 -0.27344 q0.0390625 -0.3125 -0.15625 -0.37109375 t-0.23438 -0.29297 q-0.078125 -0.1953125 0.05859375 -0.37109375 t0.17578 -0.41016 q0.0390625 -0.15625 -0.01953125 -0.41015625 t-0.097656 -0.44922 q-0.0390625 -0.390625 0.0390625 -0.7421875 t0 -0.58594 t-0.33203 -0.33203 t-0.17578 -0.41016 q0.2734375 -0.078125 0.41015625 -0.29296875 t0.19531 -0.46875 t0.11719 -0.54688 t0.13672 -0.52734 q-0.234375 -0.234375 -0.2734375 -0.6640625 q0.1953125 -0.1171875 0.21484375 -0.1953125 t-0.019531 -0.23438 q0.2734375 -0.234375 0.48828125 -0.52734375 t0.29297 -0.64453 q-0.078125 -0.078125 -0.1953125 -0.13671875 t-0.11719 -0.21484 q0 -0.1171875 0.09765625 -0.15625 t0.21484 -0.15625 q0.1953125 -0.1953125 0.3125 -0.4296875 t0.3125 -0.54688 q0.46875 -0.46875 0.56640625 -0.7421875 t0.21484 -0.46875 q0.4296875 -0.8203125 0.859375 -1.484375 q1.1328125 -0.859375 1.8359375 -1.9140625 q0.5859375 -0.390625 0.80078125 -0.76171875 t0.52734 -0.68359 q0.78125 -0.078125 1.1328125 -0.390625 t0.70313 -0.64453 t0.74219 -0.625 t0.9375 -0.41016 q0.3125 -0.078125 0.56640625 -0.33203125 t0.56641 -0.33203 q0.1953125 -0.078125 0.41015625 -0.05859375 t0.37109 -0.17578 q0.1953125 0.078125 0.3125 -0.01953125 t0.27344 -0.13672 q0.6640625 -0.1953125 1.23046875 -0.05859375 t1.1914 0.17578 q0.46875 0.0390625 0.87890625 0.17578125 t0.87891 0.21484 q0.15625 0.0390625 0.3515625 0.25390625 t0.46875 0.29297 q0.5078125 0.1171875 0.64453125 0.25390625 t0.33203 0.097656 q0.2734375 0.234375 0.33203125 0.2734375 t0.21484 0 q0.546875 0.546875 1.015625 1.1328125 t1.0156 1.1328 q0.078125 0.546875 0.4296875 0.80078125 t0.54688 0.64453 q0.3125 0.0390625 0.3515625 -0.15625 t0.11719 -0.39063 q0.5859375 -0.546875 0.8984375 -1.26953125 t0.74219 -1.3867 q0 -0.4296875 0.05859375 -0.48828125 t0.097656 -0.13672 q-0.0390625 -0.3125 -0.078125 -0.5859375 t0.19531 -0.42969 q0.078125 -0.0390625 0.21484375 0.01953125 t0.25391 0.058594 q0.15625 0.3515625 0.1171875 0.72265625 t0.23438 0.56641 q-0.15625 0.78125 -0.15625 1.5625 t-0.078125 1.5625 q0 0.4296875 -0.01953125 0.83984375 t-0.097656 0.95703 q-0.15625 0.4296875 -0.09765625 0.56640625 t0.058594 0.33203 t-0.039063 0.33203 t-0.078125 0.29297 q-0.0390625 0.234375 0.05859375 0.52734375 t-0.13672 0.48828 q0.078125 0.5859375 0.1171875 0.99609375 t0.039063 0.78125 t-0.097656 0.70313 t-0.37109 0.56641 q-0.15625 -0.078125 -0.25390625 -0.21484375 t-0.21484 -0.25391 q-0.1171875 -0.859375 -0.25390625 -1.66015625 t-0.68359 -1.1914 q-0.078125 -0.6640625 -0.33203125 -1.2109375 t-0.52734 -1.0547 q-0.15625 -0.078125 -0.29296875 -0.0390625 t-0.25391 -0.039063 q0.0390625 -0.234375 0.01953125 -0.390625 t0.097656 -0.27344 q-0.390625 -0.6640625 -0.8203125 -1.26953125 t-0.85938 -1.2305 q-0.390625 -0.3125 -0.6640625 -0.68359375 t-0.74219 -0.72266 q-0.1171875 -0.078125 -0.2734375 -0.09765625 t-0.3125 -0.097656 q-1.09375 -0.5078125 -2.1484375 -0.99609375 t-2.6172 -0.44922 q-0.390625 0 -0.703125 0.15625 t-0.66406 0.23438 q-0.15625 0.3125 -0.4296875 0.44921875 t-0.66406 0.21484 q-0.078125 0.1953125 -0.234375 0.21484375 t-0.27344 0.13672 q-0.234375 0.390625 -0.3125 0.390625 t-0.078125 0.039063 q-0.1171875 0.4296875 -0.1953125 0.48828125 t-0.15625 0.13672 q-0.1171875 0.1953125 -0.21484375 0.37109375 t-0.29297 0.25391 q-0.0390625 0.2734375 -0.078125 0.37109375 t-0.097656 0.21484 t-0.13672 0.23438 t-0.27344 0.15625 q0.234375 0.1171875 0.09765625 0.2734375 t0.019531 0.35156 q-0.3125 0.3125 -0.5859375 0.76171875 t-0.15625 0.95703 q-0.078125 0.3515625 -0.2734375 0.64453125 t-0.27344 0.60547 q-0.0390625 0.3125 0.13671875 0.48828125 t0.25391 0.52734 q-0.078125 0.1953125 -0.21484375 0.2734375 t-0.17578 0.27344 q0.1171875 0.15625 0.3515625 0.390625 q0 0.390625 -0.21484375 0.56640625 t-0.37109 0.44922 q0.0390625 0.234375 0 0.4296875 t-0.097656 0.37109 t-0.078125 0.37109 t0.058594 0.42969 q-0.1953125 0.1171875 -0.1171875 0.390625 t0 0.46875 q0.078125 0.1171875 0.234375 0.3125 t0.078125 0.42969 q-0.3125 0.2734375 -0.29296875 0.8984375 t0.25391 1.0156 q-0.1171875 0.2734375 -0.09765625 0.52734375 t0.019531 0.50781 t0.019531 0.54688 t0.058594 0.68359 q0.1171875 0.4296875 0.09765625 0.546875 t-0.097656 0.3125 q0.078125 0.3515625 0.1171875 0.546875 t0.23438 0.50781 q-0.1953125 0.546875 -0.05859375 0.9765625 t0.097656 0.9375 q0.1171875 0.1953125 0.3515625 0.1953125 t0.42969 -0.15625 q0 0.3125 0.09765625 0.4296875 t-0.019531 0.42969 q-0.4296875 0.78125 -0.13671875 1.25 t0.76172 0.74219 q0.078125 0.4296875 0 0.4296875 l-0.15625 0 q0 0.46875 0.3125 0.5078125 q-0.0390625 0.1953125 0.0390625 0.33203125 t0.17578 0.27344 t0.15625 0.29297 t0.019531 0.3125 q0.2734375 0.234375 0.52734375 0.546875 t0.50781 0.58594 t0.54688 0.50781 t0.68359 0.27344 q0.1953125 0.390625 0.703125 0.46875 t1.0156 0.19531 q1.1328125 -0.1171875 2.03125 -0.546875 t1.6406 -0.89844 q0.2734375 -0.3125 0.46875 -0.72265625 t0.50781 -0.72266 q0.625 -0.3125 0.7421875 -0.8984375 t0.19531 -1.2891 q-0.1171875 -0.0390625 -0.1953125 0.01953125 t-0.27344 -0.019531 q-0.3125 -0.4296875 -0.0390625 -0.76171875 t0.50781 -0.56641 q0.0390625 -0.3125 0 -0.46875 t0.078125 -0.39063 q-0.078125 -0.3515625 0.0390625 -0.56640625 t0 -0.41016 q-0.3515625 0 -0.52734375 0.09765625 t-0.44922 -0.097656 q-0.0390625 -0.234375 0.09765625 -0.41015625 t0.097656 -0.37109 q0.1953125 -0.3125 0.52734375 -0.52734375 t0.37109 -0.56641 q0.0390625 -0.1171875 -0.078125 -0.21484375 t-0.11719 -0.25391 q0 -0.234375 0.13671875 -0.52734375 t0.058594 -0.52734 q-0.15625 -0.234375 -0.3515625 -0.09765625 t-0.39063 -0.058594 q0.078125 -0.4296875 -0.01953125 -0.41015625 t-0.058594 -0.097656 q0.2734375 -0.0390625 0.41015625 -0.21484375 t0.33203 -0.29297 q-0.078125 -0.2734375 -0.33203125 -0.17578125 t-0.44922 0.058594 l-0.15625 -0.3125 t-0.078125 -0.27344 q0.078125 -0.2734375 0.33203125 -0.37109375 t0.29297 -0.41016 q-0.234375 -0.1171875 -0.56640625 -0.13671875 t-0.68359 -0.019531 l-0.68359 0 t-0.56641 -0.078125 q-0.15625 0.078125 -0.25390625 0.1171875 t-0.13672 0.15625 q-0.15625 -0.1171875 -0.3515625 -0.13671875 t-0.41016 -0.019531 t-0.39063 -0.039063 t-0.29297 -0.23438 q-0.0390625 -0.1953125 0.078125 -0.234375 t0.15625 -0.15625 q1.2890625 -0.1171875 2.7734375 -0.1171875 t2.8516 -0.19531 q0.1953125 -0.0390625 0.52734375 -0.09765625 t0.60547 -0.058594 q1.2109375 -0.078125 2.44140625 0.01953125 t2.2852 -0.17578 q0.4296875 0.15625 0.9375 0.13671875 t1.0352 -0.058594 t1.0547 -0.039063 t0.99609 0.19531 z M38.2419375 32.6562 q-0.4296875 0.0390625 -0.48828125 -0.01953125 t-0.097656 -0.21484 q0.078125 0.0390625 0.234375 -0.078125 t0.3125 0.039063 z M53.7499375 14.922 q-0.1171875 -0.1953125 0.01953125 -0.48828125 t-0.13672 -0.48828 q-0.3125 0.1953125 -0.44921875 0.56640625 t-0.52734 0.44922 q0 0.3515625 -0.25390625 0.5078125 t-0.37109 0.42969 q0.46875 -0.234375 0.9375 -0.4296875 t0.78125 -0.54688 z M53.7109375 15.742 q-0.4296875 0.078125 -0.8203125 0.3515625 t-0.58594 0.625 q0.0390625 0.1953125 0.33203125 0.1953125 t0.29297 0.15625 q0 -0.1953125 0.25390625 -0.2734375 t0.44922 -0.23438 q0.0390625 -0.234375 0.01953125 -0.41015625 t0.058594 -0.41016 z M53.0079375 17.305 q-0.3515625 0.390625 -0.3125 0.4296875 q0.1953125 0.0390625 0.21484375 -0.13671875 t0.097656 -0.29297 z M53.437937500000004 19.141 q0.0390625 -0.2734375 0.05859375 -0.6640625 t-0.13672 -0.46875 q-0.3125 0.1953125 -0.29296875 0.5859375 t0.37109 0.54688 z M53.4769375 25.469 q-0.0390625 -0.3515625 -0.390625 -0.3515625 t-0.66406 0.039063 q-0.0390625 0.46875 -0.01953125 0.546875 t0.097656 0.078125 q0.1953125 -0.1171875 0.25390625 -0.17578125 t0.13672 -0.058594 q0.15625 -0.1171875 0.2734375 -0.1171875 t0.3125 0.039063 z M52.8909375 25.742 q-0.1953125 0.1171875 -0.33203125 0.078125 t-0.13672 0.27344 q0.1171875 -0.0390625 0.21484375 -0.05859375 t0.21484 0.058594 z M51.327937500000004 25.195 q-0.1953125 0.0390625 -0.5078125 0 t-0.60547 -0.039063 t-0.48828 0.11719 t-0.11719 0.46875 q0.1953125 0 0.3515625 -0.078125 t0.35156 0 q0.0390625 -0.15625 0.17578125 -0.1953125 t0.3125 -0.058594 t0.3125 -0.058594 t0.21484 -0.15625 z M53.6329375 27.578 q-0.1953125 0.0390625 -0.29296875 0.17578125 t-0.37109 0.058594 q-0.1953125 0.3515625 -0.64453125 0.546875 t-0.83984 0.23438 q0 0.46875 0.13671875 0.41015625 t0.25391 -0.15625 t0.27344 -0.17578 t0.39063 -0.078125 q0.4296875 -0.234375 0.87890625 -0.390625 t0.21484 -0.625 z M52.3049375 26.133 q-0.4296875 0.078125 -0.7421875 0.3125 t-0.74219 0.3125 q-0.078125 0.1171875 -0.25390625 0.234375 t-0.37109 0 q-0.4296875 0.234375 -0.41015625 0.2734375 t0.078125 0.078125 t0.097656 0.078125 t-0.039063 0.11719 q-0.2734375 0.1171875 -0.41015625 0.2734375 t-0.21484 0.39063 q0.390625 -0.078125 0.60546875 -0.21484375 t0.37109 -0.33203 q0.1953125 0.0390625 0.2734375 -0.01953125 t0.35156 0.019531 q0.0390625 -0.4296875 0.41015625 -0.6640625 t0.72266 -0.3125 q0.1171875 -0.3125 0.1953125 -0.390625 t0.078125 -0.15625 z M49.4139375 25.625 q-0.0390625 0.1953125 -0.17578125 0.17578125 t-0.17578 0.17578 q0.15625 0.1171875 0.37109375 -0.078125 t-0.019531 -0.27344 z M50.2739375 26.172 q-0.3515625 -0.078125 -0.546875 0.15625 t-0.42969 0.078125 q0.5078125 0.2734375 0.9765625 -0.234375 z M53.8669375 29.531 q0 -0.1171875 -0.0390625 -0.1953125 t0 -0.23438 q-0.1171875 0 -0.21484375 -0.01953125 t-0.29297 -0.019531 q-0.1171875 0.3515625 -0.21484375 0.41015625 t-0.21484 0.13672 q-0.078125 0.0390625 -0.21484375 0.1171875 t-0.21484 0.27344 q-0.1953125 -0.0390625 -0.2734375 0 t-0.19531 0.039063 q0.3515625 0.390625 0.3515625 0.29296875 t0.11719 -0.17578 t0.33203 -0.058594 t0.44922 -0.019531 q0.0390625 -0.15625 0.17578125 -0.29296875 t0.29297 0.019531 z M37.0312375 14.687000000000001 q-0.1953125 -0.0390625 -0.25390625 0.09765625 t-0.13672 0.25391 q0.1171875 -0.078125 0.234375 -0.13671875 t0.15625 -0.21484 z M50.312937500000004 28.75 q-0.1171875 0.0390625 -0.1953125 0.05859375 t-0.23438 -0.019531 q0.2734375 0.1171875 0.37109375 0.1171875 t0.058594 -0.15625 z M52.9299375 29.061999999999998 q-0.3515625 -0.2734375 -0.41015625 -0.05859375 t-0.41016 0.13672 q-0.1171875 0.3125 -0.41015625 0.33203125 t-0.56641 0.097656 q0 0.2734375 -0.078125 0.33203125 t-0.35156 -0.019531 q-0.1953125 0.15625 -0.1953125 0.25390625 t-0.078125 0.17578 q-0.3125 0.078125 -0.48828125 0.21484375 t-0.33203 0.29297 t-0.27344 0.3125 t-0.078125 0.42969 q0.1953125 0 0.25390625 -0.15625 t0.25391 -0.039063 q0.1953125 -0.3515625 0.29296875 -0.41015625 t0.21484 0.019531 q0.1171875 -0.15625 0.29296875 -0.33203125 t0.37109 -0.097656 q0.078125 -0.078125 0.09765625 -0.1953125 t0.17578 -0.15625 q0.234375 0.1171875 0.29296875 0.1171875 t0.21484 0.039063 q-0.3125 -0.2734375 -0.33203125 -0.1953125 t-0.097656 0.039063 q0.1171875 -0.15625 0.1953125 -0.25390625 t0.3125 -0.019531 q0.3125 -0.3125 0.2734375 -0.33203125 t0 -0.097656 q0.1953125 0 0.2734375 -0.1171875 t0.27344 -0.11719 z M54.062937500000004 32.9297 q-0.1953125 -0.3515625 -0.17578125 -0.6640625 t-0.097656 -0.625 q0.1953125 -0.15625 0.1171875 -0.37109375 t-0.039063 -0.52734 q-0.15625 -0.078125 -0.234375 0.01953125 t-0.27344 0.019531 q-0.3125 0.15625 -0.37109375 0.15625 t-0.097656 0.078125 q-0.3125 0.1953125 -0.48828125 0.52734375 t-0.60547 0.48828 q0.4296875 -0.078125 0.64453125 -0.13671875 t0.64453 -0.13672 q0.5078125 -0.0390625 0.6640625 0.3515625 q-0.078125 0.1953125 -0.234375 0.33203125 t-0.42969 0.13672 q-0.1953125 0.078125 -0.5859375 0.078125 q0.0390625 0.15625 0.17578125 0.17578125 t0.21484 0.13672 q-0.078125 0.078125 -0.1953125 0 t-0.23438 -0.039063 q-0.1171875 0.2734375 -0.29296875 0.25390625 t-0.25391 0.058594 q0.078125 0.3125 0.33203125 0.33203125 t0.56641 0.097656 q0.3125 -0.3125 0.3515625 -0.21484375 t0.11719 -0.019531 q0.15625 -0.2734375 0.390625 -0.3125 t0.39063 -0.19531 z M35.0781375 15.625 q-0.1953125 0 -0.25390625 0.17578125 t-0.17578 0.25391 q0.1953125 -0.0390625 0.3515625 -0.13671875 t0.078125 -0.29297 z M52.2269375 30.7422 q-0.703125 0.15625 -1.09375 0.625 q-0.1171875 0 -0.25390625 -0.0390625 t-0.17578 0.11719 q-0.234375 0.4296875 -0.625 0.3515625 q-0.1171875 0.3125 -0.390625 0.46875 t-0.35156 0.54688 q0.15625 0.15625 0.3515625 -0.01953125 t0.39063 -0.33203 t0.41016 -0.25391 t0.44922 0.019531 q0.078125 -0.2734375 0.078125 -0.3515625 t0.11719 -0.15625 q0.15625 0.078125 0.390625 0.05859375 t0.19531 -0.21484 q0.234375 -0.3125 0.3515625 -0.41015625 t0.15625 -0.41016 z M36.5625375 16.172 q-0.1953125 0 -0.3515625 0.09765625 t-0.3125 0.21484 l-0.3125 0.23438 t-0.39063 0.11719 q-0.15625 0.2734375 -0.44921875 0.41015625 t-0.44922 0.44922 q0.3515625 -0.1171875 0.625 -0.29296875 t0.70313 -0.17578 q0.15625 -0.1953125 0.37109375 -0.3125 t0.48828 -0.19531 q0 -0.15625 0.0390625 -0.25390625 t0.039063 -0.29297 z M54.0239375 37.0312 q0 -0.3125 0.01953125 -0.6640625 t-0.29297 -0.42969 q-0.1953125 0.3125 -0.1171875 0.5078125 t0 0.50781 z M53.7109375 35 q-0.1953125 0.078125 -0.234375 0 t-0.23438 0 q-0.3125 0.4296875 -0.72265625 0.60546875 t-0.68359 0.52734 q0.3515625 0.0390625 0.52734375 0.1953125 t0.48828 0.19531 q0.3125 -0.3125 0.46875 -0.72265625 t0.39063 -0.80078 z M51.9139375 32.5391 q-0.078125 0.1953125 -0.25390625 0.3125 t-0.37109 0 q-0.234375 0.3125 -0.3515625 0.390625 t-0.3125 0.039063 q-0.4296875 0.2734375 -0.625 0.3125 q-0.3515625 0.390625 -0.64453125 0.64453125 t-0.13672 0.56641 q0.4296875 -0.15625 0.703125 -0.52734375 t0.78125 -0.33203 q0.3125 -0.546875 0.6640625 -0.6640625 t0.42969 -0.46875 z M53.6329375 33.7109 q-0.4296875 0.2734375 -0.80078125 0.33203125 t-0.80078 0.058594 q-0.3515625 0.390625 -0.6640625 0.3125 q-0.3515625 0.46875 -0.8984375 0.546875 q-0.0390625 0.2734375 -0.25390625 0.3125 t-0.37109 0.23438 q-0.1953125 0.1953125 -0.37109375 0.3125 t-0.25391 0.3125 q0.3125 0 0.5078125 -0.1171875 t0.42969 0.078125 q0.1953125 -0.15625 0.46875 -0.13671875 t0.50781 0.019531 q0.078125 -0.5859375 0.52734375 -0.78125 t0.76172 -0.54688 q0.4296875 -0.234375 0.78125 -0.37109375 t0.42969 -0.56641 z M34.2578375 17.656 q-0.3515625 0.15625 -0.5078125 0.390625 q0.1953125 0.078125 0.3125 -0.09765625 z M35.3906375 20.156 q-0.3515625 0.078125 -0.46875 0.2734375 q0.234375 0.078125 0.29296875 -0.05859375 t0.17578 -0.21484 z M36.1718375 18.008 q-0.546875 0.1171875 -0.9375 0.48828125 t-0.9375 0.41016 q0.0390625 0.390625 -0.234375 0.44921875 t-0.50781 0.13672 q-0.078125 0.15625 -0.15625 0.2734375 t-0.39063 0.039063 q-0.078125 0.1171875 -0.15625 0.25390625 t-0.23438 0.058594 q-0.078125 0.1953125 -0.21484375 0.3125 t-0.29297 0.3125 q-0.3125 0.1953125 -0.33203125 0.1171875 t-0.097656 0 q0.1953125 0.234375 0.2734375 0.17578125 t0.19531 -0.13672 q0.1953125 0.0390625 0.234375 -0.0390625 t0.19531 0 q0.4296875 -0.3515625 0.703125 -0.48828125 t0.42969 -0.37109 q0.4296875 -0.078125 0.5859375 -0.33203125 t0.46875 -0.37109 q0.234375 -0.078125 0.48828125 -0.13671875 t0.56641 -0.097656 q0.1171875 -0.546875 0.234375 -0.703125 t0.11719 -0.35156 z M34.6484375 20.586 q-0.15625 -0.0390625 -0.390625 0.15625 t-0.19531 0.39063 q0.15625 -0.1171875 0.33203125 -0.1953125 t0.25391 -0.35156 z M35.4687375 23.281 q-0.078125 -0.0390625 -0.1953125 0.05859375 t-0.27344 0.17578 q0.15625 -0.078125 0.33203125 -0.05859375 t0.13672 -0.17578 z M35.4297375 24.922 q-0.3125 0.078125 -0.3515625 0.15625 t-0.11719 0.15625 q-0.4296875 0.078125 -0.37109375 0.13671875 t-0.019531 0.097656 q-0.15625 -0.1171875 -0.1953125 0.0390625 t-0.27344 0.078125 q0.078125 0.15625 -0.09765625 0.15625 t-0.25391 0.19531 q0.15625 0.1953125 0.46875 0.15625 q0.15625 -0.15625 0.44921875 -0.3125 t0.48828 -0.039063 q0.15625 -0.1953125 0.29296875 -0.3515625 t-0.019531 -0.46875 z M35.0781375 26.016 q-0.078125 -0.078125 -0.21484375 -0.05859375 t-0.21484 0.097656 q0.15625 0.078125 0.21484375 0 t0.21484 -0.039063 z M35.7812375 28.125 q-0.078125 -0.15625 -0.3515625 -0.15625 t-0.35156 -0.19531 q-0.3125 0.3515625 -0.234375 0.3515625 t0.19531 -0.039063 t0.21484 -0.058594 t0.13672 0.13672 q-0.1953125 0 -0.44921875 0.1171875 t-0.33203 0.42969 q0.3125 -0.1171875 0.3125 -0.234375 t0.078125 -0.15625 l0.44922 0 t0.33203 -0.19531 z M34.3750375 26.914 l-0.46875 -0.27344 q-0.2734375 0.1171875 -0.33203125 0.1171875 t-0.17578 -0.078125 q0 0.3125 -0.2734375 0.33203125 t-0.35156 0.21484 q0.1953125 0.078125 0.29296875 0.05859375 t0.29297 0.019531 q-0.0390625 -0.1953125 0.2734375 -0.21484375 t0.54688 -0.097656 z M34.8437375 24.453 q-0.234375 -0.078125 -0.37109375 0.05859375 t-0.33203 0.058594 q0 0.1953125 -0.17578125 0.1953125 t-0.29297 0.078125 q-0.3515625 0.1953125 -0.703125 0.4296875 t-0.78125 0.3125 q-0.2734375 0.2734375 -0.48828125 0.46875 t-0.48828 0.11719 q-0.0390625 0.1953125 -0.17578125 0.234375 t-0.21484 0.15625 q-0.2734375 0.078125 -0.37109375 0.01953125 t-0.37109 -0.058594 q-0.1171875 0.234375 -0.01953125 0.44921875 t0.058594 0.48828 q0.390625 -0.078125 0.48828125 -0.0390625 t0.17578 0.15625 q0.0390625 -0.46875 0.15625 -0.5078125 q0.2734375 -0.1953125 0.5078125 -0.2734375 q0.1171875 0.078125 0.1953125 0.17578125 t0 0.25391 q0.3125 -0.2734375 0.15625 -0.33203125 t-0.23438 -0.097656 q0.3125 -0.3515625 0.3125 -0.1953125 t0.19531 0.15625 q-0.078125 -0.2734375 -0.15625 -0.29296875 t-0.078125 -0.13672 q0.390625 -0.3515625 0.64453125 -0.41015625 t0.41016 -0.25391 q0.1953125 0.078125 0.1953125 0.21484375 t-0.039063 0.21484 q0 -0.1953125 0.13671875 -0.17578125 t0.13672 -0.17578 q0.234375 -0.5859375 0.78125 -0.6640625 q0.078125 -0.234375 0.4296875 -0.2734375 q0.1953125 -0.1953125 0.3125 -0.3515625 z M33.0859375 26.367 q-0.3515625 0.1171875 -0.33203125 0.01953125 t-0.13672 -0.019531 q0.078125 0.1953125 0.15625 0.25390625 t0.11719 0.17578 q0 -0.15625 0.05859375 -0.234375 t0.13672 -0.19531 z M35.8203375 29.57 q-0.15625 -0.0390625 -0.25390625 0.078125 t-0.25391 0 q-0.1171875 0.3125 0.21484375 0.3125 t0.29297 -0.39063 z M32.6953375 26.68 q-0.1171875 -0.078125 -0.1953125 -0.0390625 t-0.27344 0.078125 q0.2734375 0.078125 0.46875 -0.0390625 z M32.9297375 27.578 q-0.1953125 -0.15625 -0.2734375 -0.21484375 t-0.15625 -0.13672 q0.1953125 0.3125 0.4296875 0.3515625 z M33.8672375 28.672 q-0.0390625 -0.1953125 -0.25390625 -0.3125 t-0.019531 -0.3125 q-0.0390625 0.3515625 0 0.4296875 q-0.1171875 0.078125 -0.13671875 0.1953125 t-0.13672 0.3125 q0.2734375 -0.15625 0.29296875 -0.2734375 t0.097656 -0.15625 z M30.8984375 25.156 q-0.390625 -0.078125 -0.3515625 -0.09765625 t-0.039063 -0.097656 q-0.3125 0.0390625 -0.390625 0.3125 t-0.078125 0.625 q0.1953125 -0.078125 0.25390625 -0.09765625 t0.25391 0.097656 q-0.078125 -0.4296875 0.09765625 -0.48828125 t0.25391 -0.25391 z M32.5390375 27.891 q-0.1953125 -0.15625 -0.4296875 -0.15625 q0.15625 -0.0390625 0.4296875 0.15625 z M33.2812375 28.203 q-0.1171875 0.078125 -0.234375 0.078125 t-0.19531 0.11719 q0 0.3125 -0.01953125 0.390625 t0.097656 0.039063 q0.234375 -0.2734375 0.25390625 -0.3515625 t0.097656 -0.27344 z M37.4609375 32.6172 q-0.390625 0.1171875 -0.390625 0.5078125 q0.3125 -0.1953125 0.37109375 -0.2734375 t0.019531 -0.23438 z M31.5234375 27.539 q-0.078125 -0.234375 -0.1953125 -0.21484375 t-0.15625 -0.058594 q0.1171875 0.078125 0.1953125 0.17578125 t0.15625 0.097656 z M33.2422375 28.906 q-0.15625 -0.078125 -0.234375 -0.01953125 t-0.19531 0.097656 q0 0.1953125 0.13671875 0.21484375 t0.21484 0.097656 z M32.0312375 28.164 q0 -0.234375 -0.2734375 -0.25390625 t-0.35156 0.17578 q0.234375 0.078125 0.3515625 0.05859375 t0.19531 0.058594 z M36.1328375 31.289099999999998 q-0.2734375 0.2734375 -0.8203125 0.3515625 q-0.1171875 0.3515625 -0.48828125 0.48828125 t-0.44922 0.52734 q0.15625 0.234375 0.234375 0.2734375 l0.15625 0.078125 q0 -0.4296875 0.15625 -0.46875 t0.27344 -0.19531 q0.15625 -0.15625 0.25390625 -0.15625 t0.17578 -0.078125 q0.1953125 -0.1953125 0.4296875 -0.3515625 q0 -0.1953125 -0.01953125 -0.29296875 t0.097656 -0.17578 z M32.7734375 28.867 q-0.234375 -0.3125 -0.29296875 -0.2734375 t-0.17578 -0.039063 q-0.078125 0.234375 -0.09765625 0.33203125 t-0.17578 0.097656 q0.0390625 0.1953125 -0.0390625 0.2734375 t0 0.23438 q-0.3125 -0.1953125 -0.3515625 -0.13671875 t-0.23438 -0.058594 q0.234375 0.3125 0.33203125 0.33203125 t0.29297 0.019531 q0.234375 -0.2734375 0.390625 -0.25390625 t0.23438 -0.058594 q-0.1171875 -0.0390625 -0.25390625 -0.05859375 t-0.21484 -0.13672 q0.0390625 -0.1171875 0.13671875 -0.1171875 t0.19531 0.039063 t0.17578 0.019531 t0.078125 -0.21484 z M31.3281375 28.984 q-0.15625 -0.15625 -0.33203125 -0.234375 t-0.37109 -0.078125 q0.234375 0.234375 0.37109375 0.2734375 t0.33203 0.039063 z M33.8281375 29.727 q-0.1171875 0 -0.21484375 0.0390625 t-0.29297 0 q-0.0390625 0.15625 -0.13671875 0.21484375 t-0.21484 0.078125 t-0.25391 0.058594 t-0.17578 0.15625 q-0.15625 0 -0.21484375 -0.09765625 t-0.17578 -0.17578 q0.1171875 0.234375 -0.1171875 0.4296875 t-0.42969 0.15625 q-0.1171875 0.3125 -0.390625 0.52734375 t-0.27344 0.48828 q0.4296875 -0.15625 0.5859375 -0.390625 q0.546875 0.0390625 0.7421875 -0.29296875 t0.625 -0.21484 q0.3125 -0.1953125 0.29296875 -0.25390625 t-0.019531 -0.13672 q0.4296875 -0.15625 0.6640625 -0.5859375 z M35.3906375 33.3984 q-0.1171875 -0.078125 -0.3515625 -0.1171875 t-0.35156 0.11719 q0.3515625 0.0390625 0.48828125 0.078125 t0.21484 -0.078125 z M30.8984375 29.061999999999998 q-0.1171875 -0.1171875 -0.17578125 -0.01953125 t-0.25391 0.058594 q0 0.1953125 0.390625 0.1953125 z M36.9922375 35.5078 l-0.46875 -0.35156 q0 0.4296875 0.15625 0.390625 t0.3125 -0.039063 z M31.7187375 29.883 q-0.3515625 -0.15625 -0.41015625 0.01953125 t-0.29297 0.17578 q0.1953125 0.1171875 0.33203125 -0.0390625 t0.37109 -0.15625 z M34.5312375 33.0469 q-0.15625 -0.078125 -0.234375 -0.0390625 t-0.19531 0.11719 q0.078125 0.1953125 0.21484375 0.15625 t0.21484 -0.23438 z M36.8359375 34.8437 q-0.078125 -0.2734375 -0.17578125 -0.44921875 t-0.17578 -0.48828 q-0.4296875 -0.078125 -0.5859375 0.09765625 t-0.42969 0.37109 q0.15625 -0.5859375 0.48828125 -0.68359375 t0.41016 -0.41016 q-0.5859375 0 -0.78125 0.25390625 t-0.625 0.17578 q-0.0390625 0.1953125 -0.21484375 0.234375 t-0.37109 0.078125 q-0.234375 0.1953125 -0.33203125 0.41015625 t-0.41016 0.058594 q-0.078125 0.2734375 -0.25390625 0.3515625 t-0.44922 0.11719 q-0.0390625 -0.1171875 -0.15625 -0.17578125 t-0.19531 -0.13672 q0.15625 -0.234375 0.625 -0.2734375 q0.078125 -0.3125 0.29296875 -0.46875 t0.29297 -0.46875 q-0.15625 0.1171875 -0.3125 0.17578125 t-0.23438 0.13672 q-0.3125 0.2734375 -0.703125 0.2734375 q-0.0390625 0.234375 -0.21484375 0.3125 t-0.21484 0.27344 q0.4296875 0.3125 0.703125 0.68359375 t0.54688 0.68359 q0.1171875 0.15625 0.2734375 0.3125 t0.23438 0.3125 q0.234375 0 0.4296875 -0.09765625 t0.33203 -0.21484 t0.29297 -0.21484 t0.35156 -0.097656 q0.3125 -0.1171875 0.3515625 -0.078125 t0.11719 0.039063 q0.15625 -0.234375 0.5078125 -0.3125 q-0.078125 -0.1953125 0.13671875 -0.44921875 t0.44922 -0.33203 z M38.7499375 38.3203 q-0.15625 -0.2734375 -0.390625 -0.33203125 t-0.48828 0.019531 t-0.48828 0.23438 t-0.39063 0.3125 q0.078125 0.3125 0.44921875 0.3515625 t0.64453 0.19531 q0.46875 -0.390625 0.6640625 -0.78125 z M37.5000375 36.5234 q-0.078125 -0.078125 -0.234375 -0.0390625 t-0.23438 -0.039063 q-0.15625 0.3515625 -0.5859375 0.4296875 t-0.625 0.39063 q-0.1953125 0.0390625 -0.37109375 0.1171875 t-0.21484 0.27344 q0.1953125 0.15625 0.37109375 0.15625 t0.37109 0.15625 q0.3125 -0.4296875 0.72265625 -0.7421875 t0.80078 -0.70313 z M32.8906375 32.8125 q-0.0390625 -0.15625 -0.21484375 -0.13671875 t-0.37109 -0.019531 l-0.11719 -0.23438 t0 -0.3125 q-0.2734375 -0.078125 -0.37109375 0.0390625 t-0.25391 0.19531 q-0.4296875 0.2734375 -0.234375 0.48828125 t0.11719 0.52734 q0.6640625 0.1171875 0.9375 -0.09765625 t0.50781 -0.44922 z"></path></g></svg>