<?xml version="1.0"?>
<svg xmlns="http://www.w3.org/2000/svg" version="1.1" width="384.17661517154033" height="435.59375" viewBox="0 0 312.5 354.3241350445527" class="css-1j8o68f"><defs id="SvgjsDefs51049"></defs><g id="SvgjsG51050" featurekey="rootContainer" transform="matrix(6.3004014813942035,0,0,6.3004014813942035,0.000046358657472104394,0.02629501308574099)" fill="#9a6700"><path xmlns="http://www.w3.org/2000/svg" d="M23.11 55.78L1.69 43.41A3.39 3.39 0 0 1 0 40.48V15.75a3.39 3.39 0 0 1 1.69-2.94L23.11.45a3.39 3.39 0 0 1 3.39 0l21.41 12.37a3.39 3.39 0 0 1 1.69 2.94v24.72a3.39 3.39 0 0 1-1.69 2.94L26.5 55.78a3.39 3.39 0 0 1-3.39 0z"></path></g><g id="SvgjsG51051" featurekey="nameFeature-0" transform="matrix(4.017274599531463,0,0,4.017274599531463,39.44881953174195,72.43547579090324)" fill="#ffffff"><path d="M8.34 35.94 q2.54 2.58 7.1 2.58 q4.52 0 7.06 -2.58 t2.54 -7.26 l0 -16.64 l1.68 0 l0 16.64 q0 5.44 -2.96 8.46 t-8.32 3.02 t-8.34 -3.02 t-2.98 -8.46 l0 -16.64 l1.68 0 l0 16.64 q0 4.68 2.54 7.26 z M52.385 26.28 l1.52 0 l0 10.2 q-1.96 1.72 -4.56 2.7 t-5.36 0.98 q-3.92 0 -7.24 -1.92 t-5.26 -5.18 t-1.94 -7.1 t1.96 -7.08 t5.3 -5.14 t7.26 -1.9 q2.76 0 5.3 0.98 t4.54 2.74 l-1 1.24 q-1.76 -1.6 -4.04 -2.48 t-4.8 -0.88 q-3.48 0 -6.42 1.7 t-4.68 4.56 t-1.74 6.26 q0 3.44 1.72 6.32 t4.68 4.58 t6.44 1.7 q2.28 0 4.44 -0.76 t3.88 -2.16 l0 -9.36 z"></path></g></svg>