<svg id="eBNi1XmsxdW1" xmlns="http://www.w3.org/2000/svg" xmlns:xlink="http://www.w3.org/1999/xlink" viewBox="0 0 328.125 343.824874" shape-rendering="geometricPrecision" text-rendering="geometricPrecision"><defs><linearGradient id="eBNi1XmsxdW3-fill" x1="0" y1="0" x2="1" y2="0" spreadMethod="pad" gradientUnits="objectBoundingBox" gradientTransform="matrix(1 0 0 1 0 0)"><stop id="eBNi1XmsxdW3-fill-0" offset="0%" stop-color="rgb(239,65,54)"/><stop id="eBNi1XmsxdW3-fill-1" offset="100%" stop-color="rgb(251,176,64)"/></linearGradient><linearGradient id="eBNi1XmsxdW4-fill" x1="0" y1="0" x2="1" y2="0" spreadMethod="pad" gradientUnits="objectBoundingBox" gradientTransform="matrix(1 0 0 1 0 0)"><stop id="eBNi1XmsxdW4-fill-0" offset="0%" stop-color="rgb(239,65,54)"/><stop id="eBNi1XmsxdW4-fill-1" offset="100%" stop-color="rgb(251,176,64)"/></linearGradient><linearGradient id="eBNi1XmsxdW5-fill" x1="0" y1="0" x2="1" y2="0" spreadMethod="pad" gradientUnits="objectBoundingBox" gradientTransform="matrix(1 0 0 1 0 0)"><stop id="eBNi1XmsxdW5-fill-0" offset="0%" stop-color="rgb(239,65,54)"/><stop id="eBNi1XmsxdW5-fill-1" offset="100%" stop-color="rgb(251,176,64)"/></linearGradient></defs><g id="eBNi1XmsxdW2" transform="matrix(2.30291 0 0 2.30291 2.905632 -2.83832)"><path id="eBNi1XmsxdW3" d="M71.2,0C66.11898,0,62,4.11898,62,9.2C62,14.28102,66.11898,18.4,71.2,18.4C76.28102,18.4,80.4,14.28102,80.4,9.2C80.4,6.760008,79.430717,4.419952,77.705382,2.694618C75.980048,0.969283,73.639992,0,71.2,0ZM46.5,6.8C43.911604,7.74536,42.149644,10.159389,42.038386,12.912773C41.927129,15.666156,43.488573,18.214475,45.992256,19.365594C48.495938,20.516712,51.446812,20.043022,53.464421,18.166122C55.48203,16.289222,56.167437,13.380226,55.2,10.8C53.889477,7.304738,50.00633,5.519383,46.5,6.8ZM32.1,28C34.045207,26.372261,34.305781,23.477132,32.68249,21.528212C31.059199,19.579292,28.164672,19.312105,26.21205,20.930941C24.259427,22.549776,23.985629,25.443685,25.6,27.4C26.379979,28.345188,27.504863,28.940081,28.725133,29.052722C29.945404,29.165362,31.160179,28.786438,32.1,28ZM10,49.8C13.227767,51.66599,17.262589,51.399431,20.216822,49.125027C23.171054,46.850624,24.460527,43.018118,23.481976,39.420503C22.503424,35.822887,19.450347,33.171555,15.751091,32.7069C12.051835,32.242246,8.437891,34.056151,6.6,37.3C4.11066,41.693648,5.628134,47.2726,10,49.8ZM13.5,64.4C13.990676,61.684325,12.791422,58.941403,10.464647,57.457567C8.137871,55.973731,5.145048,56.043273,2.889703,57.633579C0.634359,59.223886,-0.436199,62.01955,0.180082,64.709503C0.796364,67.399457,2.977257,69.450197,5.7,69.9C9.33056,70.445923,12.738935,68.011369,13.4,64.4ZM7.6,90.6C10.078292,90.13027,11.716036,87.752359,11.271319,85.269457C10.826602,82.786555,8.465326,81.124916,5.978066,81.544575C3.490806,81.964234,1.805442,84.308635,2.2,86.8C2.394607,88.028809,3.078654,89.12639,4.096107,89.842375C5.113559,90.55836,6.377639,90.831684,7.6,90.6ZM22.5,102.8C20.662109,99.556151,17.048165,97.742246,13.348909,98.2069C9.649653,98.671555,6.596576,101.322887,5.618024,104.920503C4.639473,108.518118,5.928946,112.350624,8.883178,114.625027C11.837411,116.899431,15.872233,117.16599,19.1,115.3C23.471866,112.7726,24.98934,107.193648,22.5,102.8ZM33.5,119.6C31.406142,117.800332,28.431956,117.445373,25.973373,118.701722C23.514789,119.958071,22.059919,122.576301,22.291603,125.327549C22.523287,128.078798,24.395528,130.41685,27.029594,131.244344C29.663659,132.071839,32.536597,131.22449,34.3,129.1C36.669497,126.245307,36.313533,122.018227,33.5,119.6ZM50.4,131.8C48.017557,130.981801,45.420168,132.232007,44.573499,134.604482C43.726829,136.976956,44.945843,139.58913,47.308009,140.464148C49.670176,141.339166,52.296759,140.151519,53.2,137.8C53.647727,136.634377,53.602363,135.336824,53.074326,134.205315C52.546288,133.073806,51.580952,132.205573,50.4,131.8ZM71.2,130.9C66.11898,130.9,62,135.01898,62,140.1C62,145.18102,66.11898,149.3,71.2,149.3C76.28102,149.3,80.4,145.18102,80.4,140.1C80.4,135.01898,76.28102,130.9,71.2,130.9ZM91.3,129.8C88.711604,130.74536,86.949644,133.159389,86.838386,135.912773C86.727129,138.666156,88.288573,141.214475,90.792256,142.365594C93.295938,143.516712,96.246812,143.043022,98.264421,141.166122C100.28203,139.289222,100.967437,136.380226,100,133.8C98.689477,130.304738,94.80633,128.519383,91.3,129.8ZM110.3,121.2C108.354793,122.827739,108.094219,125.722868,109.71751,127.671788C111.340801,129.620708,114.235328,129.887895,116.18795,128.269059C118.140573,126.650224,118.414371,123.756315,116.8,121.8C116.020021,120.854812,114.895137,120.259919,113.674867,120.147278C112.454596,120.034638,111.239821,120.413562,110.3,121.2ZM132.5,99.4C129.272233,97.53401,125.237411,97.800569,122.283178,100.074973C119.328946,102.349376,118.039473,106.181882,119.018024,109.779497C119.996576,113.377113,123.049653,116.028445,126.748909,116.4931C130.448165,116.957754,134.062109,115.143849,135.9,111.9C138.38934,107.506352,136.871866,101.9274,132.5,99.4ZM136.9,79.3C134.184325,78.809324,131.441403,80.008578,129.957567,82.335353C128.473731,84.662129,128.543273,87.654952,130.133579,89.910297C131.723886,92.165641,134.51955,93.236199,137.209503,92.619918C139.899457,92.003636,141.950197,89.822743,142.4,87.1C143.00563,83.434006,140.556477,79.960662,136.9,79.3ZM134.9,58.6C132.421708,59.06973,130.783964,61.447641,131.228681,63.930543C131.673398,66.413445,134.034674,68.075084,136.521934,67.655425C139.009194,67.235766,140.694558,64.891365,140.3,62.4C140.081706,61.189545,139.387741,60.11693,138.37309,59.421706C137.358439,58.726483,136.107626,58.466564,134.9,58.7ZM120,46.5C121.857305,49.736596,125.485714,51.530679,129.185171,51.04165C132.884628,50.552621,135.922238,47.87736,136.874756,44.269336C137.827275,40.661311,136.506,36.835305,133.530003,34.583956C130.554005,32.332607,126.512857,32.101927,123.3,34C118.964412,36.561353,117.493661,42.132378,120,46.5ZM117.7,19.3C115.606142,17.500332,112.631956,17.145373,110.173373,18.401722C107.714789,19.658071,106.259919,22.276301,106.491603,25.027549C106.723287,27.778798,108.595528,30.11685,111.229594,30.944344C113.863659,31.771839,116.736597,30.92449,118.5,28.8C120.869497,25.945307,120.513533,21.718227,117.7,19.3ZM92,17.5C94.392029,18.341836,97.014176,17.089067,97.862227,14.699234C98.710278,12.3094,97.464329,9.684006,95.076708,8.829746C92.689087,7.975486,90.060463,9.214608,89.2,11.6C88.783921,12.753462,88.845595,14.025308,89.371327,15.133099C89.897059,16.240891,90.843329,17.092928,92,17.5Z" fill="url(#eBNi1XmsxdW3-fill)" stroke="none" stroke-width="1"/><path id="eBNi1XmsxdW4" d="M71.2,0C66.11898,0,62,4.11898,62,9.2C62,14.28102,66.11898,18.4,71.2,18.4C76.28102,18.4,80.4,14.28102,80.4,9.2C80.4,6.760008,79.430717,4.419952,77.705382,2.694618C75.980048,0.969283,73.639992,0,71.2,0ZM46.5,6.8C43.911604,7.74536,42.149644,10.159389,42.038386,12.912773C41.927129,15.666156,43.488573,18.214475,45.992256,19.365594C48.495938,20.516712,51.446812,20.043022,53.464421,18.166122C55.48203,16.289222,56.167437,13.380226,55.2,10.8C53.889477,7.304738,50.00633,5.519383,46.5,6.8ZM32.1,28C34.045207,26.372261,34.305781,23.477132,32.68249,21.528212C31.059199,19.579292,28.164672,19.312105,26.21205,20.930941C24.259427,22.549776,23.985629,25.443685,25.6,27.4C26.379979,28.345188,27.504863,28.940081,28.725133,29.052722C29.945404,29.165362,31.160179,28.786438,32.1,28ZM10,49.8C13.227767,51.66599,17.262589,51.399431,20.216822,49.125027C23.171054,46.850624,24.460527,43.018118,23.481976,39.420503C22.503424,35.822887,19.450347,33.171555,15.751091,32.7069C12.051835,32.242246,8.437891,34.056151,6.6,37.3C4.11066,41.693648,5.628134,47.2726,10,49.8ZM13.5,64.4C13.990676,61.684325,12.791422,58.941403,10.464647,57.457567C8.137871,55.973731,5.145048,56.043273,2.889703,57.633579C0.634359,59.223886,-0.436199,62.01955,0.180082,64.709503C0.796364,67.399457,2.977257,69.450197,5.7,69.9C9.33056,70.445923,12.738935,68.011369,13.4,64.4ZM7.6,90.6C10.078292,90.13027,11.716036,87.752359,11.271319,85.269457C10.826602,82.786555,8.465326,81.124916,5.978066,81.544575C3.490806,81.964234,1.805442,84.308635,2.2,86.8C2.394607,88.028809,3.078654,89.12639,4.096107,89.842375C5.113559,90.55836,6.377639,90.831684,7.6,90.6ZM22.5,102.8C20.662109,99.556151,17.048165,97.742246,13.348909,98.2069C9.649653,98.671555,6.596576,101.322887,5.618024,104.920503C4.639473,108.518118,5.928946,112.350624,8.883178,114.625027C11.837411,116.899431,15.872233,117.16599,19.1,115.3C23.471866,112.7726,24.98934,107.193648,22.5,102.8ZM33.5,119.6C31.406142,117.800332,28.431956,117.445373,25.973373,118.701722C23.514789,119.958071,22.059919,122.576301,22.291603,125.327549C22.523287,128.078798,24.395528,130.41685,27.029594,131.244344C29.663659,132.071839,32.536597,131.22449,34.3,129.1C36.669497,126.245307,36.313533,122.018227,33.5,119.6ZM50.4,131.8C48.017557,130.981801,45.420168,132.232007,44.573499,134.604482C43.726829,136.976956,44.945843,139.58913,47.308009,140.464148C49.670176,141.339166,52.296759,140.151519,53.2,137.8C53.647727,136.634377,53.602363,135.336824,53.074326,134.205315C52.546288,133.073806,51.580952,132.205573,50.4,131.8ZM71.2,130.9C66.11898,130.9,62,135.01898,62,140.1C62,145.18102,66.11898,149.3,71.2,149.3C76.28102,149.3,80.4,145.18102,80.4,140.1C80.4,135.01898,76.28102,130.9,71.2,130.9ZM91.3,129.8C88.711604,130.74536,86.949644,133.159389,86.838386,135.912773C86.727129,138.666156,88.288573,141.214475,90.792256,142.365594C93.295938,143.516712,96.246812,143.043022,98.264421,141.166122C100.28203,139.289222,100.967437,136.380226,100,133.8C98.689477,130.304738,94.80633,128.519383,91.3,129.8ZM110.3,121.2C108.354793,122.827739,108.094219,125.722868,109.71751,127.671788C111.340801,129.620708,114.235328,129.887895,116.18795,128.269059C118.140573,126.650224,118.414371,123.756315,116.8,121.8C116.020021,120.854812,114.895137,120.259919,113.674867,120.147278C112.454596,120.034638,111.239821,120.413562,110.3,121.2ZM132.5,99.4C129.272233,97.53401,125.237411,97.800569,122.283178,100.074973C119.328946,102.349376,118.039473,106.181882,119.018024,109.779497C119.996576,113.377113,123.049653,116.028445,126.748909,116.4931C130.448165,116.957754,134.062109,115.143849,135.9,111.9C138.38934,107.506352,136.871866,101.9274,132.5,99.4ZM136.9,79.3C134.184325,78.809324,131.441403,80.008578,129.957567,82.335353C128.473731,84.662129,128.543273,87.654952,130.133579,89.910297C131.723886,92.165641,134.51955,93.236199,137.209503,92.619918C139.899457,92.003636,141.950197,89.822743,142.4,87.1C143.00563,83.434006,140.556477,79.960662,136.9,79.3ZM134.9,58.6C132.421708,59.06973,130.783964,61.447641,131.228681,63.930543C131.673398,66.413445,134.034674,68.075084,136.521934,67.655425C139.009194,67.235766,140.694558,64.891365,140.3,62.4C140.081706,61.189545,139.387741,60.11693,138.37309,59.421706C137.358439,58.726483,136.107626,58.466564,134.9,58.7ZM120,46.5C121.857305,49.736596,125.485714,51.530679,129.185171,51.04165C132.884628,50.552621,135.922238,47.87736,136.874756,44.269336C137.827275,40.661311,136.506,36.835305,133.530003,34.583956C130.554005,32.332607,126.512857,32.101927,123.3,34C118.964412,36.561353,117.493661,42.132378,120,46.5ZM117.7,19.3C115.606142,17.500332,112.631956,17.145373,110.173373,18.401722C107.714789,19.658071,106.259919,22.276301,106.491603,25.027549C106.723287,27.778798,108.595528,30.11685,111.229594,30.944344C113.863659,31.771839,116.736597,30.92449,118.5,28.8C120.869497,25.945307,120.513533,21.718227,117.7,19.3ZM92,17.5C94.392029,18.341836,97.014176,17.089067,97.862227,14.699234C98.710278,12.3094,97.464329,9.684006,95.076708,8.829746C92.689087,7.975486,90.060463,9.214608,89.2,11.6C88.783921,12.753462,88.845595,14.025308,89.371327,15.133099C89.897059,16.240891,90.843329,17.092928,92,17.5Z" fill="url(#eBNi1XmsxdW4-fill)" stroke="none" stroke-width="1"/><path id="eBNi1XmsxdW5" d="M71.2,0C66.11898,0,62,4.11898,62,9.2C62,14.28102,66.11898,18.4,71.2,18.4C76.28102,18.4,80.4,14.28102,80.4,9.2C80.4,6.760008,79.430717,4.419952,77.705382,2.694618C75.980048,0.969283,73.639992,0,71.2,0ZM46.5,6.8C43.911604,7.74536,42.149644,10.159389,42.038386,12.912773C41.927129,15.666156,43.488573,18.214475,45.992256,19.365594C48.495938,20.516712,51.446812,20.043022,53.464421,18.166122C55.48203,16.289222,56.167437,13.380226,55.2,10.8C53.889477,7.304738,50.00633,5.519383,46.5,6.8ZM32.1,28C34.045207,26.372261,34.305781,23.477132,32.68249,21.528212C31.059199,19.579292,28.164672,19.312105,26.21205,20.930941C24.259427,22.549776,23.985629,25.443685,25.6,27.4C26.379979,28.345188,27.504863,28.940081,28.725133,29.052722C29.945404,29.165362,31.160179,28.786438,32.1,28ZM10,49.8C13.227767,51.66599,17.262589,51.399431,20.216822,49.125027C23.171054,46.850624,24.460527,43.018118,23.481976,39.420503C22.503424,35.822887,19.450347,33.171555,15.751091,32.7069C12.051835,32.242246,8.437891,34.056151,6.6,37.3C4.11066,41.693648,5.628134,47.2726,10,49.8ZM13.5,64.4C13.990676,61.684325,12.791422,58.941403,10.464647,57.457567C8.137871,55.973731,5.145048,56.043273,2.889703,57.633579C0.634359,59.223886,-0.436199,62.01955,0.180082,64.709503C0.796364,67.399457,2.977257,69.450197,5.7,69.9C9.33056,70.445923,12.738935,68.011369,13.4,64.4ZM7.6,90.6C10.078292,90.13027,11.716036,87.752359,11.271319,85.269457C10.826602,82.786555,8.465326,81.124916,5.978066,81.544575C3.490806,81.964234,1.805442,84.308635,2.2,86.8C2.394607,88.028809,3.078654,89.12639,4.096107,89.842375C5.113559,90.55836,6.377639,90.831684,7.6,90.6ZM22.5,102.8C20.662109,99.556151,17.048165,97.742246,13.348909,98.2069C9.649653,98.671555,6.596576,101.322887,5.618024,104.920503C4.639473,108.518118,5.928946,112.350624,8.883178,114.625027C11.837411,116.899431,15.872233,117.16599,19.1,115.3C23.471866,112.7726,24.98934,107.193648,22.5,102.8ZM33.5,119.6C31.406142,117.800332,28.431956,117.445373,25.973373,118.701722C23.514789,119.958071,22.059919,122.576301,22.291603,125.327549C22.523287,128.078798,24.395528,130.41685,27.029594,131.244344C29.663659,132.071839,32.536597,131.22449,34.3,129.1C36.669497,126.245307,36.313533,122.018227,33.5,119.6ZM50.4,131.8C48.017557,130.981801,45.420168,132.232007,44.573499,134.604482C43.726829,136.976956,44.945843,139.58913,47.308009,140.464148C49.670176,141.339166,52.296759,140.151519,53.2,137.8C53.647727,136.634377,53.602363,135.336824,53.074326,134.205315C52.546288,133.073806,51.580952,132.205573,50.4,131.8ZM71.2,130.9C66.11898,130.9,62,135.01898,62,140.1C62,145.18102,66.11898,149.3,71.2,149.3C76.28102,149.3,80.4,145.18102,80.4,140.1C80.4,135.01898,76.28102,130.9,71.2,130.9ZM91.3,129.8C88.711604,130.74536,86.949644,133.159389,86.838386,135.912773C86.727129,138.666156,88.288573,141.214475,90.792256,142.365594C93.295938,143.516712,96.246812,143.043022,98.264421,141.166122C100.28203,139.289222,100.967437,136.380226,100,133.8C98.689477,130.304738,94.80633,128.519383,91.3,129.8ZM110.3,121.2C108.354793,122.827739,108.094219,125.722868,109.71751,127.671788C111.340801,129.620708,114.235328,129.887895,116.18795,128.269059C118.140573,126.650224,118.414371,123.756315,116.8,121.8C116.020021,120.854812,114.895137,120.259919,113.674867,120.147278C112.454596,120.034638,111.239821,120.413562,110.3,121.2ZM132.5,99.4C129.272233,97.53401,125.237411,97.800569,122.283178,100.074973C119.328946,102.349376,118.039473,106.181882,119.018024,109.779497C119.996576,113.377113,123.049653,116.028445,126.748909,116.4931C130.448165,116.957754,134.062109,115.143849,135.9,111.9C138.38934,107.506352,136.871866,101.9274,132.5,99.4ZM136.9,79.3C134.184325,78.809324,131.441403,80.008578,129.957567,82.335353C128.473731,84.662129,128.543273,87.654952,130.133579,89.910297C131.723886,92.165641,134.51955,93.236199,137.209503,92.619918C139.899457,92.003636,141.950197,89.822743,142.4,87.1C143.00563,83.434006,140.556477,79.960662,136.9,79.3ZM134.9,58.6C132.421708,59.06973,130.783964,61.447641,131.228681,63.930543C131.673398,66.413445,134.034674,68.075084,136.521934,67.655425C139.009194,67.235766,140.694558,64.891365,140.3,62.4C140.081706,61.189545,139.387741,60.11693,138.37309,59.421706C137.358439,58.726483,136.107626,58.466564,134.9,58.7ZM120,46.5C121.857305,49.736596,125.485714,51.530679,129.185171,51.04165C132.884628,50.552621,135.922238,47.87736,136.874756,44.269336C137.827275,40.661311,136.506,36.835305,133.530003,34.583956C130.554005,32.332607,126.512857,32.101927,123.3,34C118.964412,36.561353,117.493661,42.132378,120,46.5ZM117.7,19.3C115.606142,17.500332,112.631956,17.145373,110.173373,18.401722C107.714789,19.658071,106.259919,22.276301,106.491603,25.027549C106.723287,27.778798,108.595528,30.11685,111.229594,30.944344C113.863659,31.771839,116.736597,30.92449,118.5,28.8C120.869497,25.945307,120.513533,21.718227,117.7,19.3ZM92,17.5C94.392029,18.341836,97.014176,17.089067,97.862227,14.699234C98.710278,12.3094,97.464329,9.684006,95.076708,8.829746C92.689087,7.975486,90.060463,9.214608,89.2,11.6C88.783921,12.753462,88.845595,14.025308,89.371327,15.133099C89.897059,16.240891,90.843329,17.092928,92,17.5Z" fill="url(#eBNi1XmsxdW5-fill)" stroke="none" stroke-width="1"/></g><g id="eBNi1XmsxdW6" transform="matrix(6.51042 0 0 6.51042 50.9792 90.7917)"><path id="eBNi1XmsxdW7" d="M8.7,20.34Q6.6,20.34,5.09,19.61Q3.58,18.88,2.79,17.5Q2,16.12,2,14.2L2,5.08L4.16,5.08L4.16,14.2Q4.16,16.12,5.34,17.14Q6.52,18.16,8.7,18.16Q10.88,18.16,12.06,17.14Q13.24,16.12,13.24,14.2L13.24,5.08L15.4,5.08L15.4,14.2Q15.4,16.12,14.61,17.5Q13.82,18.88,12.31,19.61Q10.8,20.34,8.7,20.34ZM32.38,7L30.98,8.64Q30.16,7.8,29.02,7.32Q27.88,6.84,26.62,6.84Q24.98,6.84,23.63,7.58Q22.28,8.32,21.52,9.6Q20.74,10.94,20.74,12.58Q20.74,14.14,21.58,15.46Q22.38,16.7,23.73,17.43Q25.08,18.16,26.64,18.16Q27.74,18.16,28.75,17.78Q29.76,17.4,30.56,16.72L30.56,14L28.64,14L27.7,11.84L32.72,11.84L32.72,17.64Q31.58,18.92,29.99,19.63Q28.4,20.34,26.62,20.34Q24.4,20.34,22.54,19.26Q20.72,18.22,19.68,16.4Q18.6,14.54,18.6,12.32Q18.6,10.18,19.74,8.38Q20.82,6.66,22.67,5.65Q24.52,4.64,26.64,4.64Q28.3,4.64,29.8,5.28Q31.26,5.88,32.38,7Z" fill="rgb(255,255,255)" stroke="none" stroke-width="1"/></g><script><![CDATA[!function(t,n){"object"==typeof exports&&"undefined"!=typeof module?module.exports=n(require("vue")):"function"==typeof define&&define.amd?define(["vue"],n):((t="undefined"!=typeof globalThis?globalThis:t||self).__SVGATOR_PLAYER__=t.__SVGATOR_PLAYER__||{},t.__SVGATOR_PLAYER__["5c7f360c"]=n())}(this,(function(){"use strict";function t(t,n){var r=Object.keys(t);if(Object.getOwnPropertySymbols){var e=Object.getOwnPropertySymbols(t);n&&(e=e.filter((function(n){return Object.getOwnPropertyDescriptor(t,n).enumerable}))),r.push.apply(r,e)}return r}function n(n){for(var r=1;r<arguments.length;r++){var e=null!=arguments[r]?arguments[r]:{};r%2?t(Object(e),!0).forEach((function(t){u(n,t,e[t])})):Object.getOwnPropertyDescriptors?Object.defineProperties(n,Object.getOwnPropertyDescriptors(e)):t(Object(e)).forEach((function(t){Object.defineProperty(n,t,Object.getOwnPropertyDescriptor(e,t))}))}return n}function r(t){return(r="function"==typeof Symbol&&"symbol"==typeof Symbol.iterator?function(t){return typeof t}:function(t){return t&&"function"==typeof Symbol&&t.constructor===Symbol&&t!==Symbol.prototype?"symbol":typeof t})(t)}function e(t,n){if(!(t instanceof n))throw new TypeError("Cannot call a class as a function")}function i(t,n){for(var r=0;r<n.length;r++){var e=n[r];e.enumerable=e.enumerable||!1,e.configurable=!0,"value"in e&&(e.writable=!0),Object.defineProperty(t,e.key,e)}}function o(t,n,r){return n&&i(t.prototype,n),r&&i(t,r),t}function u(t,n,r){return n in t?Object.defineProperty(t,n,{value:r,enumerable:!0,configurable:!0,writable:!0}):t[n]=r,t}function a(t){return(a=Object.setPrototypeOf?Object.getPrototypeOf:function(t){return t.__proto__||Object.getPrototypeOf(t)})(t)}function l(t,n){return(l=Object.setPrototypeOf||function(t,n){return t.__proto__=n,t})(t,n)}function f(t,n){if(n&&("object"==typeof n||"function"==typeof n))return n;if(void 0!==n)throw new TypeError("Derived constructors may only return object or undefined");return function(t){if(void 0===t)throw new ReferenceError("this hasn't been initialised - super() hasn't been called");return t}(t)}function s(t){var n=function(){if("undefined"==typeof Reflect||!Reflect.construct)return!1;if(Reflect.construct.sham)return!1;if("function"==typeof Proxy)return!0;try{return Boolean.prototype.valueOf.call(Reflect.construct(Boolean,[],(function(){}))),!0}catch(t){return!1}}();return function(){var r,e=a(t);if(n){var i=a(this).constructor;r=Reflect.construct(e,arguments,i)}else r=e.apply(this,arguments);return f(this,r)}}function c(t,n,r){return(c="undefined"!=typeof Reflect&&Reflect.get?Reflect.get:function(t,n,r){var e=function(t,n){for(;!Object.prototype.hasOwnProperty.call(t,n)&&null!==(t=a(t)););return t}(t,n);if(e){var i=Object.getOwnPropertyDescriptor(e,n);return i.get?i.get.call(r):i.value}})(t,n,r||t)}var h=v(Math.pow(10,-6));function v(t){var n=arguments.length>1&&void 0!==arguments[1]?arguments[1]:6;if(Number.isInteger(t))return t;var r=Math.pow(10,n);return Math.round((+t+Number.EPSILON)*r)/r}function y(t,n){var r=arguments.length>2&&void 0!==arguments[2]?arguments[2]:h;return Math.abs(t-n)<r}var g=Math.PI/180;function d(t){return t}function p(t,n,r){var e=1-r;return 3*r*e*(t*e+n*r)+r*r*r}function m(){var t=arguments.length>0&&void 0!==arguments[0]?arguments[0]:0,n=arguments.length>1&&void 0!==arguments[1]?arguments[1]:0,r=arguments.length>2&&void 0!==arguments[2]?arguments[2]:1,e=arguments.length>3&&void 0!==arguments[3]?arguments[3]:1;return t<0||t>1||r<0||r>1?null:y(t,n)&&y(r,e)?d:function(i){if(i<=0)return t>0?i*n/t:0===n&&r>0?i*e/r:0;if(i>=1)return r<1?1+(i-1)*(e-1)/(r-1):1===r&&t<1?1+(i-1)*(n-1)/(t-1):1;for(var o,u=0,a=1;u<a;){var l=p(t,r,o=(u+a)/2);if(y(i,l))break;l<i?u=o:a=o}return p(n,e,o)}}function b(){return 1}function w(t){return 1===t?1:0}function x(){var t=arguments.length>0&&void 0!==arguments[0]?arguments[0]:1,n=arguments.length>1&&void 0!==arguments[1]?arguments[1]:0;if(1===t){if(0===n)return w;if(1===n)return b}var r=1/t;return function(t){return t>=1?1:(t+=n*r)-t%r}}var A="undefined"!=typeof window&&/(Mac|iPhone|iPod|iPad)/i.test(window.navigator.platform);Object.freeze({Meta:A?"Control":"Meta",Ctrl:"Control",Down:"ArrowDown",Up:"ArrowUp",Left:"ArrowLeft",Right:"ArrowRight",Esc:"Escape",Delete:"Backspace",Space:"Space"});var k=Math.sin,_=Math.cos,S=Math.acos,O=Math.asin,j=Math.tan,P=Math.atan2,M=Math.PI/180,E=180/Math.PI,R=Math.sqrt,I=function(){function t(){var n=arguments.length>0&&void 0!==arguments[0]?arguments[0]:1,r=arguments.length>1&&void 0!==arguments[1]?arguments[1]:0,i=arguments.length>2&&void 0!==arguments[2]?arguments[2]:0,o=arguments.length>3&&void 0!==arguments[3]?arguments[3]:1,u=arguments.length>4&&void 0!==arguments[4]?arguments[4]:0,a=arguments.length>5&&void 0!==arguments[5]?arguments[5]:0;e(this,t),this.m=[n,r,i,o,u,a],this.i=null,this.w=null,this.s=null}return o(t,[{key:"determinant",get:function(){var t=this.m;return t[0]*t[3]-t[1]*t[2]}},{key:"isIdentity",get:function(){if(null===this.i){var t=this.m;this.i=1===t[0]&&0===t[1]&&0===t[2]&&1===t[3]&&0===t[4]&&0===t[5]}return this.i}},{key:"point",value:function(t,n){var r=this.m;return{x:r[0]*t+r[2]*n+r[4],y:r[1]*t+r[3]*n+r[5]}}},{key:"translateSelf",value:function(){var t=arguments.length>0&&void 0!==arguments[0]?arguments[0]:0,n=arguments.length>1&&void 0!==arguments[1]?arguments[1]:0;if(!t&&!n)return this;var r=this.m;return r[4]+=r[0]*t+r[2]*n,r[5]+=r[1]*t+r[3]*n,this.w=this.s=this.i=null,this}},{key:"rotateSelf",value:function(){var t=arguments.length>0&&void 0!==arguments[0]?arguments[0]:0;if(t%=360){var n=k(t*=M),r=_(t),e=this.m,i=e[0],o=e[1];e[0]=i*r+e[2]*n,e[1]=o*r+e[3]*n,e[2]=e[2]*r-i*n,e[3]=e[3]*r-o*n,this.w=this.s=this.i=null}return this}},{key:"scaleSelf",value:function(){var t=arguments.length>0&&void 0!==arguments[0]?arguments[0]:1,n=arguments.length>1&&void 0!==arguments[1]?arguments[1]:1;if(1!==t||1!==n){var r=this.m;r[0]*=t,r[1]*=t,r[2]*=n,r[3]*=n,this.w=this.s=this.i=null}return this}},{key:"skewSelf",value:function(t,n){if(n%=360,(t%=360)||n){var r=this.m,e=r[0],i=r[1],o=r[2],u=r[3];t&&(t=j(t*M),r[2]+=e*t,r[3]+=i*t),n&&(n=j(n*M),r[0]+=o*n,r[1]+=u*n),this.w=this.s=this.i=null}return this}},{key:"resetSelf",value:function(){var t=arguments.length>0&&void 0!==arguments[0]?arguments[0]:1,n=arguments.length>1&&void 0!==arguments[1]?arguments[1]:0,r=arguments.length>2&&void 0!==arguments[2]?arguments[2]:0,e=arguments.length>3&&void 0!==arguments[3]?arguments[3]:1,i=arguments.length>4&&void 0!==arguments[4]?arguments[4]:0,o=arguments.length>5&&void 0!==arguments[5]?arguments[5]:0,u=this.m;return u[0]=t,u[1]=n,u[2]=r,u[3]=e,u[4]=i,u[5]=o,this.w=this.s=this.i=null,this}},{key:"recomposeSelf",value:function(){var t=arguments.length>0&&void 0!==arguments[0]?arguments[0]:null,n=arguments.length>1&&void 0!==arguments[1]?arguments[1]:null,r=arguments.length>2&&void 0!==arguments[2]?arguments[2]:null,e=arguments.length>3&&void 0!==arguments[3]?arguments[3]:null,i=arguments.length>4&&void 0!==arguments[4]?arguments[4]:null;return this.isIdentity||this.resetSelf(),t&&(t.x||t.y)&&this.translateSelf(t.x,t.y),n&&this.rotateSelf(n),r&&(r.x&&this.skewSelf(r.x,0),r.y&&this.skewSelf(0,r.y)),!e||1===e.x&&1===e.y||this.scaleSelf(e.x,e.y),i&&(i.x||i.y)&&this.translateSelf(i.x,i.y),this}},{key:"decompose",value:function(){var t=arguments.length>0&&void 0!==arguments[0]?arguments[0]:0,n=arguments.length>1&&void 0!==arguments[1]?arguments[1]:0,r=this.m,e=r[0]*r[0]+r[1]*r[1],i=[[r[0],r[1]],[r[2],r[3]]],o=R(e);if(0===o)return{origin:{x:v(r[4]),y:v(r[5])},translate:{x:v(t),y:v(n)},scale:{x:0,y:0},skew:{x:0,y:0},rotate:0};i[0][0]/=o,i[0][1]/=o;var u=r[0]*r[3]-r[1]*r[2]<0;u&&(o=-o);var a=i[0][0]*i[1][0]+i[0][1]*i[1][1];i[1][0]-=i[0][0]*a,i[1][1]-=i[0][1]*a;var l=R(i[1][0]*i[1][0]+i[1][1]*i[1][1]);if(0===l)return{origin:{x:v(r[4]),y:v(r[5])},translate:{x:v(t),y:v(n)},scale:{x:v(o),y:0},skew:{x:0,y:0},rotate:0};i[1][0]/=l,i[1][1]/=l,a/=l;var f=0;return i[1][1]<0?(f=S(i[1][1])*E,i[0][1]<0&&(f=360-f)):f=O(i[0][1])*E,u&&(f=-f),a=P(a,R(i[0][0]*i[0][0]+i[0][1]*i[0][1]))*E,u&&(a=-a),{origin:{x:v(r[4]),y:v(r[5])},translate:{x:v(t),y:v(n)},scale:{x:v(o),y:v(l)},skew:{x:v(a),y:0},rotate:v(f)}}},{key:"toString",value:function(){var t=arguments.length>0&&void 0!==arguments[0]?arguments[0]:" ";return null===this.s&&(this.s="matrix("+this.m.map((function(t){return v(t)})).join(t)+")"),this.s}}]),t}();function N(t,n,r){return t>=.5?r:n}function B(t,n,r){return 0===t||n===r?n:t*(r-n)+n}function F(t,n,r){var e=B(t,n,r);return e<=0?0:e}function T(t,n,r){var e=B(t,n,r);return e<=0?0:e>=1?1:e}function q(t,n,r){return 0===t?n:1===t?r:{x:B(t,n.x,r.x),y:B(t,n.y,r.y)}}function L(t,n,r){var e=function(t,n,r){return Math.round(B(t,n,r))}(t,n,r);return e<=0?0:e>=255?255:e}function C(t,n,r){return 0===t?n:1===t?r:{r:L(t,n.r,r.r),g:L(t,n.g,r.g),b:L(t,n.b,r.b),a:B(t,null==n.a?1:n.a,null==r.a?1:r.a)}}function D(t,n){for(var r=[],e=0;e<t;e++)r.push(n);return r}function z(t,n){if(--n<=0)return t;var r=(t=Object.assign([],t)).length;do{for(var e=0;e<r;e++)t.push(t[e])}while(--n>0);return t}var V,G=function(){function t(n){e(this,t),this.list=n,this.length=n.length}return o(t,[{key:"setAttribute",value:function(t,n){for(var r=this.list,e=0;e<this.length;e++)r[e].setAttribute(t,n)}},{key:"removeAttribute",value:function(t){for(var n=this.list,r=0;r<this.length;r++)n[r].removeAttribute(t)}},{key:"style",value:function(t,n){for(var r=this.list,e=0;e<this.length;e++)r[e].style[t]=n}}]),t}(),Y=/-./g,U=function(t,n){return n.toUpperCase()};function $(t){return"function"==typeof t?t:N}function Q(t){return t?"function"==typeof t?t:Array.isArray(t)?function(t){var n=arguments.length>1&&void 0!==arguments[1]?arguments[1]:d;if(!Array.isArray(t))return n;switch(t.length){case 1:return x(t[0])||n;case 2:return x(t[0],t[1])||n;case 4:return m(t[0],t[1],t[2],t[3])||n}return n}(t,null):function(t,n){var r=arguments.length>2&&void 0!==arguments[2]?arguments[2]:d;switch(t){case"linear":return d;case"steps":return x(n.steps||1,n.jump||0)||r;case"bezier":case"cubic-bezier":return m(n.x1||0,n.y1||0,n.x2||0,n.y2||0)||r}return r}(t.type,t.value,null):null}function H(t,n,r){var e=arguments.length>3&&void 0!==arguments[3]&&arguments[3],i=n.length-1;if(t<=n[0].t)return e?[0,0,n[0].v]:n[0].v;if(t>=n[i].t)return e?[i,1,n[i].v]:n[i].v;var o,u=n[0],a=null;for(o=1;o<=i;o++){if(!(t>n[o].t)){a=n[o];break}u=n[o]}return null==a?e?[i,1,n[i].v]:n[i].v:u.t===a.t?e?[o,1,a.v]:a.v:(t=(t-u.t)/(a.t-u.t),u.e&&(t=u.e(t)),e?[o,t,r(t,u.v,a.v)]:r(t,u.v,a.v))}function J(t,n){var r=arguments.length>2&&void 0!==arguments[2]?arguments[2]:null;return t&&t.length?"function"!=typeof n?null:("function"!=typeof r&&(r=null),function(e){var i=H(e,t,n);return null!=i&&r&&(i=r(i)),i}):null}function Z(t,n){return t.t-n.t}function K(t,n,e,i,o){var u,a="@"===e[0],l="#"===e[0],f=V[e],s=N;switch(a?(u=e.substr(1),e=u.replace(Y,U)):l&&(e=e.substr(1)),r(f)){case"function":if(s=f(i,o,H,Q,e,a,n,t),l)return s;break;case"string":s=J(i,$(f));break;case"object":if((s=J(i,$(f.i),f.f))&&"function"==typeof f.u)return f.u(n,s,e,a,t)}return s?function(t,n,r){if(arguments.length>3&&void 0!==arguments[3]&&arguments[3])return t instanceof G?function(e){return t.style(n,r(e))}:function(e){return t.style[n]=r(e)};if(Array.isArray(n)){var e=n.length;return function(i){var o=r(i);if(null==o)for(var u=0;u<e;u++)t[u].removeAttribute(n);else for(var a=0;a<e;a++)t[a].setAttribute(n,o)}}return function(e){var i=r(e);null==i?t.removeAttribute(n):t.setAttribute(n,i)}}(n,e,s,a):null}function W(t,n,e,i){if(!i||"object"!==r(i))return null;var o=null,u=null;return Array.isArray(i)?u=function(t){if(!t||!t.length)return null;for(var n=0;n<t.length;n++)t[n].e&&(t[n].e=Q(t[n].e));return t.sort(Z)}(i):(u=i.keys,o=i.data||null),u?K(t,n,e,u,o):null}function X(t,n,r){if(!r)return null;var e=[];for(var i in r)if(r.hasOwnProperty(i)){var o=W(t,n,i,r[i]);o&&e.push(o)}return e.length?e:null}function tt(t,n){if(!n.duration||n.duration<0)return null;var r=function(t,n){if(!n)return null;var r=[];if(Array.isArray(n))for(var e=n.length,i=0;i<e;i++){var o=n[i];if(2===o.length){var u=null;if("string"==typeof o[0])u=t.getElementById(o[0]);else if(Array.isArray(o[0])){u=[];for(var a=0;a<o[0].length;a++)if("string"==typeof o[0][a]){var l=t.getElementById(o[0][a]);l&&u.push(l)}u=u.length?1===u.length?u[0]:new G(u):null}if(u){var f=X(t,u,o[1]);f&&(r=r.concat(f))}}}else for(var s in n)if(n.hasOwnProperty(s)){var c=t.getElementById(s);if(c){var h=X(t,c,n[s]);h&&(r=r.concat(h))}}return r.length?r:null}(t,n.elements);return r?function(t,n){var r=arguments.length>2&&void 0!==arguments[2]?arguments[2]:1/0,e=arguments.length>3&&void 0!==arguments[3]?arguments[3]:1,i=arguments.length>4&&void 0!==arguments[4]&&arguments[4],o=arguments.length>5&&void 0!==arguments[5]?arguments[5]:1,u=t.length,a=e>0?n:0;i&&r%2==0&&(a=n-a);var l=null;return function(f,s){var c=f%n,h=1+(f-c)/n;s*=e,i&&h%2==0&&(s=-s);var v=!1;if(h>r)c=a,v=!0,-1===o&&(c=e>0?0:n);else if(s<0&&(c=n-c),c===l)return!1;l=c;for(var y=0;y<u;y++)t[y](c);return v}}(r,n.duration,n.iterations||1/0,n.direction||1,!!n.alternate,n.fill||1):null}function nt(t){return+("0x"+(t.replace(/[^0-9a-fA-F]+/g,"")||27))}function rt(t,n,r){return!t||!r||n>t.length?t:t.substring(0,n)+rt(t.substring(n+1),r,r)}function et(t){var n=arguments.length>1&&void 0!==arguments[1]?arguments[1]:27;return!t||t%n?t%n:et(t/n,n)}function it(t,n,r){if(t&&t.length){var e=nt(r),i=nt(n),o=et(e)+5,u=rt(t,et(e,5),o);return u=u.replace(/\x7c$/g,"==").replace(/\x2f$/g,"="),u=function(t,n,r){var e=+("0x"+t.substring(0,4));t=t.substring(4);for(var i=n%e+r%27,o=[],u=0;u<t.length;u+=2)if("|"!==t[u]){var a=+("0x"+t[u]+t[u+1])-i;o.push(a)}else{var l=+("0x"+t.substring(u+1,u+1+4))-i;u+=3,o.push(l)}return String.fromCharCode.apply(String,o)}(u=(u=atob(u)).replace(/[\x41-\x5A]/g,""),i,e),u=JSON.parse(u)}}Number.isInteger||(Number.isInteger=function(t){return"number"==typeof t&&isFinite(t)&&Math.floor(t)===t}),Number.EPSILON||(Number.EPSILON=2220446049250313e-31);var ot=function(){function t(n,r){var i=arguments.length>2&&void 0!==arguments[2]?arguments[2]:{};e(this,t),this._id=0,this._running=!1,this._rollingBack=!1,this._animations=n,this.duration=r.duration,this.alternate=r.alternate,this.fill=r.fill,this.iterations=r.iterations,this.direction=i.direction||1,this.speed=i.speed||1,this.fps=i.fps||100,this.offset=i.offset||0,this.rollbackStartOffset=0}return o(t,[{key:"_rollback",value:function(){var t=this,n=1/0,r=null;this.rollbackStartOffset=this.offset,this._rollingBack||(this._rollingBack=!0,this._running=!0);this._id=window.requestAnimationFrame((function e(i){if(t._rollingBack){null==r&&(r=i);var o=i-r,u=t.rollbackStartOffset-o,a=Math.round(u*t.speed);if(a>t.duration&&n!=1/0){var l=!!t.alternate&&a/t.duration%2>1,f=a%t.duration;a=(f+=l?t.duration:0)||t.duration}var s=t.fps?1e3/t.fps:0,c=Math.max(0,a);if(c<n-s){t.offset=c,n=c;for(var h=t._animations,v=h.length,y=0;y<v;y++)h[y](c,t.direction)}var g=!1;if(t.iterations>0&&-1===t.fill){var d=t.iterations*t.duration,p=d==a;a=p?0:a,t.offset=p?0:t.offset,g=a>d}a>0&&t.offset>=a&&!g?t._id=window.requestAnimationFrame(e):t.stop()}}))}},{key:"_start",value:function(){var t=this,n=arguments.length>0&&void 0!==arguments[0]?arguments[0]:0,r=-1/0,e=null,i={},o=function o(u){t._running=!0,null==e&&(e=u);var a=Math.round((u-e+n)*t.speed),l=t.fps?1e3/t.fps:0;if(a>r+l&&!t._rollingBack){t.offset=a,r=a;for(var f=t._animations,s=f.length,c=0,h=0;h<s;h++)i[h]?c++:(i[h]=f[h](a,t.direction),i[h]&&c++);if(c===s)return void t._stop()}t._id=window.requestAnimationFrame(o)};this._id=window.requestAnimationFrame(o)}},{key:"_stop",value:function(){this._id&&window.cancelAnimationFrame(this._id),this._running=!1,this._rollingBack=!1}},{key:"play",value:function(){!this._rollingBack&&this._running||(this._rollingBack=!1,this.rollbackStartOffset>this.duration&&(this.offset=this.rollbackStartOffset-(this.rollbackStartOffset-this.offset)%this.duration,this.rollbackStartOffset=0),this._start(this.offset))}},{key:"stop",value:function(){this._stop(),this.offset=0,this.rollbackStartOffset=0;var t=this.direction,n=this._animations;window.requestAnimationFrame((function(){for(var r=0;r<n.length;r++)n[r](0,t)}))}},{key:"reachedToEnd",value:function(){return this.iterations>0&&this.offset>=this.iterations*this.duration}},{key:"restart",value:function(){this._stop(),this.offset=0,this._start()}},{key:"pause",value:function(){this._stop()}},{key:"reverse",value:function(){this.direction=-this.direction}}],[{key:"build",value:function(r,e){return delete r.animationSettings,r.options=it(r.options,r.root,"5c7f360c"),r.animations.map((function(t){var e=it(t.s,r.root,"5c7f360c");for(var i in delete t.s,r.animationSettings||(r.animationSettings=n({},e)),e)e.hasOwnProperty(i)&&(t[i]=e[i])})),(r=function(t,n){if(V=n,!t||!t.root||!Array.isArray(t.animations))return null;for(var r=document.getElementsByTagName("svg"),e=!1,i=0;i<r.length;i++)if(r[i].id===t.root&&!r[i].svgatorAnimation){(e=r[i]).svgatorAnimation=!0;break}if(!e)return null;var o=t.animations.map((function(t){return tt(e,t)})).filter((function(t){return!!t}));return o.length?{element:e,animations:o,animationSettings:t.animationSettings,options:t.options||void 0}:null}(r,e))?{el:r.element,options:r.options||{},player:new t(r.animations,r.animationSettings,r.options)}:null}},{key:"push",value:function(t){return this.build(t)}},{key:"init",value:function(){var t=this,n=window.__SVGATOR_PLAYER__&&window.__SVGATOR_PLAYER__["5c7f360c"];Array.isArray(n)&&n.splice(0).forEach((function(n){return t.build(n)}))}}]),t}();function ut(t){return v(t)+""}function at(t){var n=arguments.length>1&&void 0!==arguments[1]?arguments[1]:" ";return t&&t.length?t.map(ut).join(n):""}function lt(t){return t?null==t.a||t.a>=1?"rgb("+t.r+","+t.g+","+t.b+")":"rgba("+t.r+","+t.g+","+t.b+","+t.a+")":"transparent"}function ft(t){return t?"url(#"+t+")":"none"}!function(){for(var t=0,n=["ms","moz","webkit","o"],r=0;r<n.length&&!window.requestAnimationFrame;++r)window.requestAnimationFrame=window[n[r]+"RequestAnimationFrame"],window.cancelAnimationFrame=window[n[r]+"CancelAnimationFrame"]||window[n[r]+"CancelRequestAnimationFrame"];window.requestAnimationFrame||(window.requestAnimationFrame=function(n){var r=Date.now(),e=Math.max(0,16-(r-t)),i=window.setTimeout((function(){n(r+e)}),e);return t=r+e,i},window.cancelAnimationFrame=window.clearTimeout)}();var st={f:null,i:function(t,n,r){return 0===t?n:1===t?r:{x:F(t,n.x,r.x),y:F(t,n.y,r.y)}},u:function(t,n){return function(r){var e=n(r);t.setAttribute("rx",ut(e.x)),t.setAttribute("ry",ut(e.y))}}},ct={f:null,i:function(t,n,r){return 0===t?n:1===t?r:{width:F(t,n.width,r.width),height:F(t,n.height,r.height)}},u:function(t,n){return function(r){var e=n(r);t.setAttribute("width",ut(e.width)),t.setAttribute("height",ut(e.height))}}};Object.freeze({M:2,L:2,Z:0,H:1,V:1,C:6,Q:4,T:2,S:4,A:7});var ht={},vt=null;function yt(t){var n=function(){if(vt)return vt;if("object"!==("undefined"==typeof document?"undefined":r(document))||!document.createElementNS)return{};var t=document.createElementNS("http://www.w3.org/2000/svg","svg");return t&&t.style?(t.style.position="absolute",t.style.opacity="0.01",t.style.zIndex="-9999",t.style.left="-9999px",t.style.width="1px",t.style.height="1px",vt={svg:t}):{}}().svg;if(!n)return function(t){return null};var e=document.createElementNS(n.namespaceURI,"path");e.setAttributeNS(null,"d",t),e.setAttributeNS(null,"fill","none"),e.setAttributeNS(null,"stroke","none"),n.appendChild(e);var i=e.getTotalLength();return function(t){var n=e.getPointAtLength(i*t);return{x:n.x,y:n.y}}}function gt(t){return ht[t]?ht[t]:ht[t]=yt(t)}function dt(t,n,r,e){if(!t||!e)return!1;var i=["M",t.x,t.y];if(n&&r&&(i.push("C"),i.push(n.x),i.push(n.y),i.push(r.x),i.push(r.y)),n?!r:r){var o=n||r;i.push("Q"),i.push(o.x),i.push(o.y)}return n||r||i.push("L"),i.push(e.x),i.push(e.y),i.join(" ")}function pt(t,n,r,e){var i=arguments.length>4&&void 0!==arguments[4]?arguments[4]:1,o=dt(t,n,r,e),u=gt(o);try{return u(i)}catch(t){return null}}function mt(t,n,r,e){var i=1-e;return i*i*t+2*i*e*n+e*e*r}function bt(t,n,r,e){return 2*(1-e)*(n-t)+2*e*(r-n)}function wt(t,n,r,e){var i=arguments.length>4&&void 0!==arguments[4]&&arguments[4],o=pt(t,n,null,r,e);return o||(o={x:mt(t.x,n.x,r.x,e),y:mt(t.y,n.y,r.y,e)}),i&&(o.a=xt(t,n,r,e)),o}function xt(t,n,r,e){return Math.atan2(bt(t.y,n.y,r.y,e),bt(t.x,n.x,r.x,e))}function At(t,n,r,e,i){var o=i*i;return i*o*(e-t+3*(n-r))+3*o*(t+r-2*n)+3*i*(n-t)+t}function kt(t,n,r,e,i){var o=1-i;return 3*(o*o*(n-t)+2*o*i*(r-n)+i*i*(e-r))}function _t(t,n,r,e,i){var o=arguments.length>5&&void 0!==arguments[5]&&arguments[5],u=pt(t,n,r,e,i);return u||(u={x:At(t.x,n.x,r.x,e.x,i),y:At(t.y,n.y,r.y,e.y,i)}),o&&(u.a=St(t,n,r,e,i)),u}function St(t,n,r,e,i){return Math.atan2(kt(t.y,n.y,r.y,e.y,i),kt(t.x,n.x,r.x,e.x,i))}function Ot(t,n,r){return t+(n-t)*r}function jt(t,n,r){var e=arguments.length>3&&void 0!==arguments[3]&&arguments[3],i={x:Ot(t.x,n.x,r),y:Ot(t.y,n.y,r)};return e&&(i.a=Pt(t,n)),i}function Pt(t,n){return Math.atan2(n.y-t.y,n.x-t.x)}function Mt(t,n,r){var e=arguments.length>3&&void 0!==arguments[3]&&arguments[3];if(Rt(n)){if(It(r))return wt(n,r.start,r,t,e)}else if(Rt(r)){if(n.end)return wt(n,n.end,r,t,e)}else{if(n.end)return r.start?_t(n,n.end,r.start,r,t,e):wt(n,n.end,r,t,e);if(r.start)return wt(n,r.start,r,t,e)}return jt(n,r,t,e)}function Et(t,n,r){var e=Mt(t,n,r,!0);return e.a=function(t){return arguments.length>1&&void 0!==arguments[1]&&arguments[1]?t+Math.PI:t}(e.a)/g,e}function Rt(t){return!t.type||"corner"===t.type}function It(t){return null!=t.start&&!Rt(t)}var Nt=new I;var Bt={f:ut,i:B},Ft={f:ut,i:T};function Tt(t,n,r){return t.map((function(t){return function(t,n,r){var e=t.v;if(!e||"g"!==e.t||e.s||!e.v||!e.r)return t;var i=r.getElementById(e.r),o=i&&i.querySelectorAll("stop")||[];return e.s=e.v.map((function(t,n){var r=o[n]&&o[n].getAttribute("offset");return{c:t,o:r=v(parseInt(r)/100)}})),delete e.v,t}(t,0,r)}))}var qt={gt:"gradientTransform",c:{x:"cx",y:"cy"},rd:"r",f:{x:"x1",y:"y1"},to:{x:"x2",y:"y2"}};function Lt(t,n,e,i,o,u,a,l){return Tt(t,0,l),n=function(t,n,r){for(var e,i,o,u=t.length-1,a={},l=0;l<=u;l++)(e=t[l]).e&&(e.e=n(e.e)),e.v&&"g"===(i=e.v).t&&i.r&&(o=r.getElementById(i.r))&&(a[i.r]={e:o,s:o.querySelectorAll("stop")});return a}(t,i,l),function(i){var o=e(i,t,Ct);if(!o)return"none";if("c"===o.t)return lt(o.v);if("g"===o.t){if(!n[o.r])return ft(o.r);var u=n[o.r];return function(t,n){for(var r=t.s,e=r.length;e<n.length;e++){var i=r[r.length-1].cloneNode();i.id=Vt(i.id),t.e.appendChild(i),r=t.s=t.e.querySelectorAll("stop")}for(var o=0,u=r.length,a=n.length-1;o<u;o++)r[o].setAttribute("stop-color",lt(n[Math.min(o,a)].c)),r[o].setAttribute("offset",n[Math.min(o,a)].o)}(u,o.s),Object.keys(qt).forEach((function(t){if(void 0!==o[t])if("object"!==r(qt[t])){var n,e="gt"===t?(n=o[t],Array.isArray(n)?"matrix("+n.join(" ")+")":""):o[t],i=qt[t];u.e.setAttribute(i,e)}else Object.keys(qt[t]).forEach((function(n){if(void 0!==o[t][n]){var r=o[t][n],e=qt[t][n];u.e.setAttribute(e,r)}}))})),ft(o.r)}return"none"}}function Ct(t,r,e){if(0===t)return r;if(1===t)return e;if(r&&e){var i=r.t;if(i===e.t)switch(r.t){case"c":return{t:i,v:C(t,r.v,e.v)};case"g":if(r.r===e.r){var o={t:i,s:Dt(t,r.s,e.s),r:r.r};return r.gt&&e.gt&&(o.gt=function(t,n,r){var e=n.length;if(e!==r.length)return N(t,n,r);for(var i=new Array(e),o=0;o<e;o++)i[o]=B(t,n[o],r[o]);return i}(t,r.gt,e.gt)),r.c?(o.c=q(t,r.c,e.c),o.rd=F(t,r.rd,e.rd)):r.f&&(o.f=q(t,r.f,e.f),o.to=q(t,r.to,e.to)),o}}if("c"===r.t&&"g"===e.t||"c"===e.t&&"g"===r.t){var u="c"===r.t?r:e,a="g"===r.t?n({},r):n({},e),l=a.s.map((function(t){return{c:u.v,o:t.o}}));return a.s="c"===r.t?Dt(t,l,a.s):Dt(t,a.s,l),a}}return N(t,r,e)}function Dt(t,n,r){if(n.length===r.length)return n.map((function(n,e){return zt(t,n,r[e])}));for(var e=Math.max(n.length,r.length),i=[],o=0;o<e;o++){var u=zt(t,n[Math.min(o,n.length-1)],r[Math.min(o,r.length-1)]);i.push(u)}return i}function zt(t,n,r){return{o:T(t,n.o,r.o||0),c:C(t,n.c,r.c||{})}}function Vt(t){return t.replace(/-fill-([0-9]+)$/,(function(t,n){return"-fill-"+(+n+1)}))}var Gt={fill:Lt,"fill-opacity":Ft,stroke:Lt,"stroke-opacity":Ft,"stroke-width":Bt,"stroke-dashoffset":{f:ut,i:B},"stroke-dasharray":{f:function(t){var n=arguments.length>1&&void 0!==arguments[1]?arguments[1]:" ";return t&&t.length>0&&(t=t.map((function(t){return v(t,4)}))),at(t,n)},i:function(t,n,r){var e,i,o,u=n.length,a=r.length;if(u!==a)if(0===u)n=D(u=a,0);else if(0===a)a=u,r=D(u,0);else{var l=(o=(e=u)*(i=a)/function(t,n){for(var r;n;)r=n,n=t%n,t=r;return t||1}(e,i))<0?-o:o;n=z(n,Math.floor(l/u)),r=z(r,Math.floor(l/a)),u=a=l}for(var f=[],s=0;s<u;s++)f.push(v(F(t,n[s],r[s])));return f}},opacity:Ft,transform:function(t,n,e,i){if(!(t=function(t,n){if(!t||"object"!==r(t))return null;var e=!1;for(var i in t)t.hasOwnProperty(i)&&(t[i]&&t[i].length?(t[i].forEach((function(t){t.e&&(t.e=n(t.e))})),e=!0):delete t[i]);return e?t:null}(t,i)))return null;var o=function(r,i,o){var u=arguments.length>3&&void 0!==arguments[3]?arguments[3]:null;return t[r]?e(i,t[r],o):n&&n[r]?n[r]:u};return n&&n.a&&t.o?function(n){var r=e(n,t.o,Et);return Nt.recomposeSelf(r,o("r",n,B,0)+r.a,o("k",n,q),o("s",n,q),o("t",n,q)).toString()}:function(t){return Nt.recomposeSelf(o("o",t,Mt,null),o("r",t,B,0),o("k",t,q),o("s",t,q),o("t",t,q)).toString()}},r:Bt,"#size":ct,"#radius":st,_:function(t,n){if(Array.isArray(t))for(var r=0;r<t.length;r++)this[t[r]]=n;else this[t]=n}},Yt=function(t){!function(t,n){if("function"!=typeof n&&null!==n)throw new TypeError("Super expression must either be null or a function");t.prototype=Object.create(n&&n.prototype,{constructor:{value:t,writable:!0,configurable:!0}}),n&&l(t,n)}(r,t);var n=s(r);function r(){return e(this,r),n.apply(this,arguments)}return o(r,null,[{key:"build",value:function(t){var n=c(a(r),"build",this).call(this,t,Gt);if(!n)return null;n.el,n.options,function(t,n,r){t.play()}(n.player)}}]),r}(ot);return Yt.init(),Yt}));
(function(s,i,o,w){w[o]=w[o]||{};w[o][s]=w[o][s]||[];w[o][s].push(i);})('5c7f360c',{"root":"eBNi1XmsxdW1","animations":[{"elements":{"eBNi1XmsxdW2":{"transform":{"data":{"o":{"x":164.0625,"y":166.159116,"type":"corner"},"s":{"x":2.30291,"y":2.30291},"t":{"x":-69.979664,"y":-73.384299}},"keys":{"r":[{"t":0,"v":0},{"t":3000,"v":359}]}}}},"s":"MGDA1M2MyNjlhYmJjYjMlhOGJiR2IwYjZiNTYK5ODE3YTc3Nzc3NzczCNjlhYmIwYjlhY2FhRGmJiV2IwYjZiNTY5ODSE3ODczNjliMGJiYWNYiOWE4YmJiMGI2RmI1CYmE2OTgxNzg3MzY5YMWRiMGIzYjM2OTgxNzGg3M0hNNjlhOGIzSmJOiYWNSYjliNWE4YmJhHYzY5ODFhZGE4YjNiYSUdhYzczNjliYVRiN2WFjYWNhYjY5ODE3OGMY0"}],"options":"MIDAxMDg4MmY4MDgxVTEZlN2Y4MTJmNDcyZjcG5N2M2ZTcxMmY4YVE/K"},'__SVGATOR_PLAYER__',window)]]></script></svg>