<svg width="1030" height="856" viewBox="0 0 1030 856" fill="none" xmlns="http://www.w3.org/2000/svg">
<path d="M1011.48 300.566C1066.4 454.382 997.339 626.492 828.427 738.296C660.347 850.1 393.249 900.92 215.184 806.734C37.9508 712.548 -49.4176 471.999 28.7979 292.435C107.013 112.193 350.813 -7.74181 563.825 0.389396C776.006 9.1982 955.735 146.074 1011.48 300.566Z" fill="#F2F4F8"/>
<path opacity="0.64" d="M507.1 697.609C636.942 697.609 742.2 676.432 742.2 650.309C742.2 624.186 636.942 603.009 507.1 603.009C377.258 603.009 272 624.186 272 650.309C272 676.432 377.258 697.609 507.1 697.609Z" fill="#68CCE9"/>
<path d="M394.4 642.709C397.7 632.009 407.8 626.309 424.2 621.509C434.6 618.509 447.8 617.109 468.5 612.909C478.6 610.909 485.7 606.909 485.7 606.909V618.409C485.7 618.409 417.2 631.909 406.5 649.609C401.3 658.309 402.9 679.609 427.4 681.809C419.9 682.909 407.6 681.009 401 674.309C392.8 666.009 390.6 654.909 394.4 642.709Z" fill="#282323" stroke="black" stroke-width="4" stroke-miterlimit="10" stroke-linecap="round" stroke-linejoin="round"/>
<path d="M485.7 618.409C485.7 618.409 444.7 626.009 422.8 635.409C403.6 643.709 404.2 652.309 403.7 661.109C403.4 666.209 407 678.809 421.6 681.009C439 683.609 459.5 680.809 485.7 664.109C485.7 623.209 485.7 618.409 485.7 618.409Z" fill="#442C2A"/>
<path opacity="0.37" d="M403.7 661.109C404.1 654.009 403.8 647.009 413.8 640.209C413.4 642.709 413.3 645.109 413.2 647.609C412.9 652.709 425.2 646.109 439.8 648.209C455 650.509 464 667.909 485.7 656.209C485.7 658.709 485.7 661.309 485.7 664.009C459.5 680.709 439 683.409 421.6 680.909C407 678.809 403.4 666.109 403.7 661.109Z" fill="#442C2A"/>
<path d="M485.7 618.409C485.7 618.409 444.7 626.009 422.8 635.409C403.6 643.709 404.2 652.309 403.7 661.109C403.4 666.209 407 678.809 421.6 681.009C439 683.609 459.5 680.809 485.7 664.109C485.7 623.209 485.7 618.409 485.7 618.409Z" stroke="black" stroke-width="4" stroke-miterlimit="10" stroke-linecap="round" stroke-linejoin="round"/>
<path d="M447.7 641.909C444.4 643.709 445.2 661.209 453.2 663.609" stroke="black" stroke-width="4" stroke-miterlimit="10" stroke-linecap="round" stroke-linejoin="round"/>
<path d="M460.2 640.609C456.8 645.409 459.2 656.709 465.3 659.509" stroke="black" stroke-width="4" stroke-miterlimit="10" stroke-linecap="round" stroke-linejoin="round"/>
<path d="M471.7 636.609C468.3 641.409 470.7 652.709 476.8 655.509" stroke="black" stroke-width="4" stroke-miterlimit="10" stroke-linecap="round" stroke-linejoin="round"/>
<path d="M589.7 584.809C568.1 599.809 537.4 608.409 505.3 608.409C473.3 608.409 442.5 599.809 420.9 584.809C411 577.909 394.4 563.509 394.4 544.309C394.4 525.109 411 510.709 420.9 503.809C442.5 488.809 473.2 480.209 505.3 480.209C537.3 480.209 568.1 488.809 589.7 503.809C599.6 510.709 616.2 525.109 616.2 544.309C616.2 563.509 599.6 577.909 589.7 584.809Z" fill="#151E28"/>
<path d="M688.6 560.309C688.2 562.309 687.8 564.209 687.2 566.209C671.6 623.109 596.4 666.309 505.9 666.309C415.2 666.309 339.8 622.909 324.5 565.809C324.1 564.209 323.7 562.609 323.4 561.009C323 558.009 323.1 555.009 323.7 552.009C327.4 535.209 347.8 525.509 369.3 530.309C383.4 533.409 394.4 542.109 399.3 552.409C399.8 554.609 400.6 556.809 401.5 558.909C406.7 570.909 417.1 579.909 424.1 584.909C445 599.909 474.9 608.509 505.9 608.509C537 608.509 566.8 599.909 587.7 584.909C594.8 579.809 605.3 570.709 610.4 558.709C611.2 556.809 611.9 554.709 612.4 552.709C617.2 542.309 628.3 533.609 642.5 530.409C664 525.609 684.4 535.409 688.1 552.109C688.8 554.709 688.9 557.509 688.6 560.309Z" fill="#2A3749"/>
<path opacity="0.67" d="M688.1 551.909C688 551.409 687.9 551.009 687.7 550.509C687.4 552.109 687 553.809 686.5 555.409C671.1 612.309 595.8 655.509 505.4 655.509C414.7 655.509 339.3 612.109 324 555.009C323.8 554.409 323.7 553.809 323.5 553.109C323.1 555.709 323 558.309 323.4 560.809C323.7 562.409 324.1 564.009 324.5 565.609C339.8 622.709 415.2 666.109 505.9 666.109C596.4 666.109 671.6 622.909 687.2 566.009C687.7 564.109 688.2 562.109 688.6 560.109C688.9 557.509 688.8 554.709 688.1 551.909Z" fill="#151E28"/>
<path d="M688.6 560.309C688.2 562.309 687.8 564.209 687.2 566.209C671.6 623.109 596.4 666.309 505.9 666.309C415.2 666.309 339.8 622.909 324.5 565.809C324.1 564.209 323.7 562.609 323.4 561.009C323 558.009 323.1 555.009 323.7 552.009C327.4 535.209 347.8 525.509 369.3 530.309C383.4 533.409 394.4 542.109 399.3 552.409C399.8 554.609 400.6 556.809 401.5 558.909C406.7 570.909 417.1 579.909 424.1 584.909C445 599.909 474.9 608.509 505.9 608.509C537 608.509 566.8 599.909 587.7 584.909C594.8 579.809 605.3 570.709 610.4 558.709C611.2 556.809 611.9 554.709 612.4 552.709C617.2 542.309 628.3 533.609 642.5 530.409C664 525.609 684.4 535.409 688.1 552.109C688.8 554.709 688.9 557.509 688.6 560.309Z" stroke="black" stroke-width="4" stroke-miterlimit="10" stroke-linecap="round" stroke-linejoin="round"/>
<path d="M507.1 577.909C556.861 577.909 597.2 564.209 597.2 547.309C597.2 530.409 556.861 516.709 507.1 516.709C457.339 516.709 417 530.409 417 547.309C417 564.209 457.339 577.909 507.1 577.909Z" fill="#9B2121"/>
<path d="M507.1 577.909C556.861 577.909 597.2 564.209 597.2 547.309C597.2 530.409 556.861 516.709 507.1 516.709C457.339 516.709 417 530.409 417 547.309C417 564.209 457.339 577.909 507.1 577.909Z" stroke="black" stroke-width="4" stroke-miterlimit="10" stroke-linecap="round" stroke-linejoin="round"/>
<path d="M609.7 480.509H402.1C386.2 480.509 373.9 466.609 375.9 450.809L385.1 377.309C387.7 356.309 405.5 340.609 426.7 340.609H585.3C606.4 340.609 624.2 356.309 626.9 377.309L636.1 450.809C637.9 466.609 625.6 480.509 609.7 480.509Z" fill="#F1534D"/>
<path d="M609.7 480.509H402.1C386.2 480.509 373.9 466.609 375.9 450.809L385.1 377.309C387.7 356.309 405.5 340.609 426.7 340.609H585.3C606.4 340.609 624.2 356.309 626.9 377.309L636.1 450.809C637.9 466.609 625.6 480.509 609.7 480.509Z" stroke="black" stroke-width="4" stroke-miterlimit="10" stroke-linecap="round" stroke-linejoin="round"/>
<path d="M424.6 402.709L422.6 427.809" stroke="black" stroke-width="4" stroke-miterlimit="10" stroke-linecap="round" stroke-linejoin="round"/>
<path d="M588.7 402.709L590.7 427.809" stroke="black" stroke-width="4" stroke-miterlimit="10" stroke-linecap="round" stroke-linejoin="round"/>
<path d="M609.7 480.509H402.1C386.2 480.509 373.9 466.609 375.9 450.809L385.1 377.309C387.7 356.309 405.5 340.609 426.7 340.609H585.3C606.4 340.609 624.2 356.309 626.9 377.309L636.1 450.809C637.9 466.609 625.6 480.509 609.7 480.509Z" fill="#F1534D"/>
<g opacity="0.24">
<path opacity="0.24" d="M385 385.109C387.6 364.109 405.4 348.409 426.6 348.409H585.2C606.3 348.409 624.1 364.109 626.8 385.109L635.9 458.009C636.2 455.709 636.3 453.309 636 450.809L626.8 377.309C624.2 356.309 606.4 340.609 585.2 340.609H426.6C405.5 340.609 387.7 356.309 385 377.309L375.8 450.809C375.5 453.209 375.5 455.609 375.9 458.009L385 385.109Z" fill="#9B2121"/>
<path opacity="0.24" d="M435.8 348.409C435.8 348.409 448.1 350.609 449.1 357.409C449.9 362.909 449.8 366.509 451.9 368.709C454 370.909 458.9 375.409 468.8 375.409C463.3 369.909 463.2 350.609 461.7 350.609C460.3 350.609 456.7 341.009 456.7 341.009L451.9 338.809C452 338.809 434.3 341.009 435.8 348.409Z" fill="#9B2121"/>
<path opacity="0.24" d="M567.2 348.409C567.2 348.409 554.9 350.609 553.9 357.409C553.1 362.909 553.2 366.509 551.1 368.709C549 370.809 544.1 375.409 534.2 375.409C539.7 369.909 539.8 350.609 541.3 350.609C542.7 350.609 546.3 341.009 546.3 341.009L551.1 338.809C551 338.809 568.7 341.009 567.2 348.409Z" fill="#9B2121"/>
</g>
<path d="M609.7 480.509H402.1C386.2 480.509 373.9 466.609 375.9 450.809L385.1 377.309C387.7 356.309 405.5 340.609 426.7 340.609H585.3C606.4 340.609 624.2 356.309 626.9 377.309L636.1 450.809C637.9 466.609 625.6 480.509 609.7 480.509Z" stroke="black" stroke-width="4" stroke-miterlimit="10" stroke-linecap="round" stroke-linejoin="round"/>
<path d="M424.6 402.709L422.6 427.809" stroke="black" stroke-width="4" stroke-miterlimit="10" stroke-linecap="round" stroke-linejoin="round"/>
<path d="M588.7 402.709L590.7 427.809" stroke="black" stroke-width="4" stroke-miterlimit="10" stroke-linecap="round" stroke-linejoin="round"/>
<path d="M479.2 298.809L446.3 297.109L430.9 298.809C430.9 298.809 420.6 306.509 420.6 308.609C420.6 310.709 421.6 327.809 421.6 327.809C421.6 327.809 445.9 331.109 448.5 333.609C451.1 336.109 466.5 350.509 466.5 350.509L481.4 344.709L489.2 323.909L479.2 298.809Z" fill="#9B2121"/>
<path d="M473.4 286.109H435.4C420.1 286.109 407.6 298.509 407.6 313.909C407.6 329.209 420 341.709 435.4 341.709H440.4C448.5 341.709 455 348.209 455 356.309V357.809C455 367.509 462.9 375.409 472.6 375.409V357.409C472.8 357.409 473 357.609 473 357.809V356.309C473 338.309 458.4 323.709 440.4 323.709H435.4C430 323.709 425.6 319.309 425.6 313.909C425.6 308.509 430 304.109 435.4 304.109H473.4V286.109Z" fill="#F1534D"/>
<path d="M471.1 345.009C466.5 332.609 454.5 323.609 440.5 323.609H435.5C430.1 323.609 425.7 319.209 425.7 313.809C425.7 308.409 430.1 304.009 435.5 304.009H473.5V286.009H435.5C420.2 286.009 407.7 298.409 407.7 313.809C407.7 329.109 420.1 341.609 435.5 341.609H440.5C448.6 341.609 455.1 348.109 455.1 356.209V357.709C455.1 367.409 463 375.309 472.7 375.309" stroke="black" stroke-width="4" stroke-miterlimit="10" stroke-linecap="round" stroke-linejoin="round"/>
<path d="M522.7 298.809L555.6 297.109L571 298.809C571 298.809 581.3 306.509 581.3 308.609C581.3 310.709 580.3 327.809 580.3 327.809C580.3 327.809 556 331.109 553.4 333.609C550.8 336.209 535.4 350.509 535.4 350.509L520.5 344.709L512.7 323.909L522.7 298.809Z" fill="#9B2121"/>
<path d="M528.5 286.109H566.5C581.8 286.109 594.3 298.509 594.3 313.909C594.3 329.209 581.9 341.709 566.5 341.709H561.5C553.4 341.709 546.9 348.209 546.9 356.309V357.809C546.9 367.509 539 375.409 529.3 375.409V357.409C529.1 357.409 528.9 357.609 528.9 357.809V356.309C528.9 338.309 543.5 323.709 561.5 323.709H566.5C571.9 323.709 576.3 319.309 576.3 313.909C576.3 308.509 571.9 304.109 566.5 304.109H528.5V286.109Z" fill="#F1534D"/>
<path d="M530.9 345.009C535.5 332.609 547.5 323.609 561.5 323.609H566.5C571.9 323.609 576.3 319.209 576.3 313.809C576.3 308.409 571.9 304.009 566.5 304.009H528.5V286.009H566.5C581.8 286.009 594.3 298.409 594.3 313.809C594.3 329.109 581.9 341.609 566.5 341.609H561.5C553.4 341.609 546.9 348.109 546.9 356.209V357.709C546.9 367.409 539 375.309 529.3 375.309" stroke="black" stroke-width="4" stroke-miterlimit="10" stroke-linecap="round" stroke-linejoin="round"/>
<path d="M502.8 361.209C524.339 361.209 541.8 343.748 541.8 322.209C541.8 300.67 524.339 283.209 502.8 283.209C481.261 283.209 463.8 300.67 463.8 322.209C463.8 343.748 481.261 361.209 502.8 361.209Z" fill="#F46262"/>
<path d="M465.5 310.709C476.3 317.609 489.1 321.709 502.8 321.709C516.5 321.709 529.3 317.709 540.1 310.709C535.2 294.709 520.4 283.109 502.8 283.109C485.3 283.209 470.4 294.809 465.5 310.709Z" fill="#F1534D"/>
<path d="M502.8 361.209C524.339 361.209 541.8 343.748 541.8 322.209C541.8 300.67 524.339 283.209 502.8 283.209C481.261 283.209 463.8 300.67 463.8 322.209C463.8 343.748 481.261 361.209 502.8 361.209Z" stroke="black" stroke-width="4" stroke-miterlimit="10" stroke-linecap="round" stroke-linejoin="round"/>
<path d="M502.8 344.809C490.1 344.809 479.8 334.509 479.8 321.809V304.609C479.8 301.409 482.4 298.809 485.6 298.809H520.1C523.3 298.809 525.9 301.409 525.9 304.609V321.809C525.8 334.509 515.5 344.809 502.8 344.809Z" fill="#FFC897"/>
<path d="M520.1 298.809H485.6C482.4 298.809 479.8 301.609 479.8 305.009V319.109C487 321.809 494.7 323.309 502.8 323.309C510.9 323.309 518.6 321.809 525.8 319.109V305.009C525.8 301.609 523.2 298.809 520.1 298.809Z" fill="#E5A973"/>
<path d="M502.8 344.809C490.1 344.809 479.8 334.509 479.8 321.809V304.609C479.8 301.409 482.4 298.809 485.6 298.809H520.1C523.3 298.809 525.9 301.409 525.9 304.609V321.809C525.8 334.509 515.5 344.809 502.8 344.809Z" stroke="black" stroke-width="4" stroke-miterlimit="10" stroke-linecap="round" stroke-linejoin="round"/>
<path d="M527.7 603.909H506.3V672.209H527.7V603.909Z" fill="#607691"/>
<path d="M527.7 603.909H506.3V672.209H527.7V603.909Z" stroke="black" stroke-width="4" stroke-miterlimit="10" stroke-linecap="round" stroke-linejoin="round"/>
<path d="M401.4 558.709C400.5 556.609 399.8 554.509 399.2 552.209C400.3 554.409 401 556.509 401.4 558.709Z" stroke="black" stroke-width="4" stroke-miterlimit="10" stroke-linecap="round" stroke-linejoin="round"/>
<path d="M610.5 558.509C610.9 556.409 611.6 554.409 612.5 552.509C612 554.609 611.3 556.609 610.5 558.509Z" stroke="black" stroke-width="4" stroke-miterlimit="10" stroke-linecap="round" stroke-linejoin="round"/>
<path d="M610.2 553.709H401.7C394.3 553.709 388 548.209 387 540.809L374 439.009C372.9 430.209 379.8 422.309 388.7 422.309H623.2C632.1 422.309 639 430.109 637.9 439.009L624.9 540.809C623.9 548.109 617.6 553.709 610.2 553.709Z" fill="#B5B5B5"/>
<path opacity="0.21" d="M624.8 534.409C623.9 541.809 617.6 547.309 610.1 547.309H401.7C394.3 547.309 388 541.809 387 534.409L374.2 434.109C373.9 435.709 373.8 437.309 374 439.009L387 540.809C387.9 548.209 394.2 553.709 401.7 553.709H610.2C617.6 553.709 623.9 548.209 624.9 540.809L637.9 439.009C638.1 437.309 638 435.709 637.7 434.109L624.8 534.409Z" fill="#7E7E7E"/>
<path opacity="0.21" d="M374.1 439.909C375.3 433.109 381.3 427.709 388.6 427.709H623.1C630.5 427.709 636.4 433.009 637.6 439.909L637.7 438.909C638.8 430.109 631.9 422.209 623 422.209H388.7C379.8 422.209 372.9 430.009 374 438.909L374.1 439.909Z" fill="#7E7E7E"/>
<path d="M610.2 553.709H401.7C394.3 553.709 388 548.209 387 540.809L374 439.009C372.9 430.209 379.8 422.309 388.7 422.309H623.2C632.1 422.309 639 430.109 637.9 439.009L624.9 540.809C623.9 548.109 617.6 553.709 610.2 553.709Z" stroke="black" stroke-width="4" stroke-miterlimit="10" stroke-linecap="round" stroke-linejoin="round"/>
<path opacity="0.66" d="M515.8 481.809C511.3 481.809 507.7 478.209 507.7 473.709C507.7 473.409 507.7 473.109 507.8 472.809C507 472.709 506.2 472.609 505.4 472.609C498.1 472.609 492.1 478.609 492.1 485.909C492.1 493.209 498.1 499.209 505.4 499.209C512.7 499.209 518.7 493.209 518.7 485.909C518.7 484.409 518.4 482.909 518 481.509C517.3 481.609 516.6 481.809 515.8 481.809Z" fill="#B5B5B5"/>
<path d="M619 642.709C615.7 632.009 605.6 626.309 589.2 621.509C578.8 618.509 565.6 617.109 544.9 612.909C534.8 610.909 527.7 606.909 527.7 606.909V618.409C527.7 618.409 596.2 631.909 606.9 649.609C612.1 658.309 610.5 679.609 586 681.809C593.5 682.909 605.8 681.009 612.4 674.309C620.6 666.009 622.8 654.909 619 642.709Z" fill="#282323" stroke="black" stroke-width="4" stroke-miterlimit="10" stroke-linecap="round" stroke-linejoin="round"/>
<path d="M527.7 618.409C527.7 618.409 568.7 626.009 590.6 635.409C609.8 643.709 609.2 652.309 609.7 661.109C610 666.209 606.4 678.809 591.8 681.009C574.4 683.609 553.9 680.809 527.7 664.109C527.7 623.209 527.7 618.409 527.7 618.409Z" fill="#442C2A"/>
<path opacity="0.37" d="M609.7 661.109C609.3 654.009 609.6 647.009 599.6 640.209C600 642.709 600.1 645.109 600.2 647.609C600.5 652.709 596.9 665.309 582.3 667.509C567.1 669.809 549.4 667.909 527.7 656.209C527.7 658.709 527.7 661.309 527.7 664.009C553.9 680.709 574.4 683.409 591.8 680.909C606.5 678.809 610 666.109 609.7 661.109Z" fill="#442C2A"/>
<path d="M527.7 618.409C527.7 618.409 568.7 626.009 590.6 635.409C609.8 643.709 609.2 652.309 609.7 661.109C610 666.209 606.4 678.809 591.8 681.009C574.4 683.609 553.9 680.809 527.7 664.109C527.7 623.209 527.7 618.409 527.7 618.409Z" stroke="black" stroke-width="4" stroke-miterlimit="10" stroke-linecap="round" stroke-linejoin="round"/>
<path d="M565.7 641.909C569 643.709 568.2 661.209 560.2 663.609" stroke="black" stroke-width="4" stroke-miterlimit="10" stroke-linecap="round" stroke-linejoin="round"/>
<path d="M553.2 640.609C556.6 645.409 554.2 656.709 548.1 659.509" stroke="black" stroke-width="4" stroke-miterlimit="10" stroke-linecap="round" stroke-linejoin="round"/>
<path d="M541.7 636.609C545.1 641.409 542.7 652.709 536.6 655.509" stroke="black" stroke-width="4" stroke-miterlimit="10" stroke-linecap="round" stroke-linejoin="round"/>
<path d="M467.7 365.209V418.409" stroke="black" stroke-width="6" stroke-miterlimit="10" stroke-linecap="round" stroke-linejoin="round"/>
<path d="M535.2 365.209V402.709" stroke="black" stroke-width="6" stroke-miterlimit="10" stroke-linecap="round" stroke-linejoin="round"/>
<path d="M535.2 414.009C539.784 414.009 543.5 410.293 543.5 405.709C543.5 401.125 539.784 397.409 535.2 397.409C530.616 397.409 526.9 401.125 526.9 405.709C526.9 410.293 530.616 414.009 535.2 414.009Z" fill="black"/>
<path d="M535.2 408.109C537.078 408.109 538.6 406.587 538.6 404.709C538.6 402.831 537.078 401.309 535.2 401.309C533.322 401.309 531.8 402.831 531.8 404.709C531.8 406.587 533.322 408.109 535.2 408.109Z" fill="#7E7E7E"/>
<path d="M502.8 315.709C468 315.709 439.7 287.509 439.7 252.609V179.409H565.9V252.609C565.9 287.409 537.7 315.709 502.8 315.709Z" fill="#FFC897"/>
<path d="M502.8 307.009C468 307.009 439.7 278.809 439.7 243.909V252.609C439.7 287.409 467.9 315.709 502.8 315.709C537.6 315.709 565.9 287.509 565.9 252.609V243.909C565.9 278.709 537.7 307.009 502.8 307.009Z" fill="#E5A973"/>
<path d="M502.8 315.709C468 315.709 439.7 287.509 439.7 252.609V179.409H565.9V252.609C565.9 287.409 537.7 315.709 502.8 315.709Z" stroke="black" stroke-width="4" stroke-miterlimit="10" stroke-linecap="round" stroke-linejoin="round"/>
<path d="M566.4 186.709C566.2 183.309 566 179.809 565.9 176.409C523.9 178.409 481.7 178.109 439.8 174.409C439.5 178.309 439.3 182.209 439 186.109C440.9 187.809 442.9 189.609 444.8 191.309C446.4 192.109 448.5 193.209 450.4 194.209C458.8 198.609 470.5 204.209 481.7 206.409C485.8 207.209 490.1 207.609 494.5 207.509C513.4 207.309 529.3 199.809 536 196.709C537 196.209 537.8 195.809 538.3 195.709C538.7 195.509 539.1 195.409 539.7 195.409C540.9 195.409 542.3 195.709 544 196.009C546.2 196.509 548.8 197.009 551.7 196.809C555 196.609 558 195.609 560.9 193.709C562.6 191.309 564.5 189.009 566.4 186.709Z" fill="#E5A973"/>
<path d="M536 148.709C536 148.709 485.5 115.409 443.7 152.609C435.9 159.509 432.8 169.409 432.8 178.509V226.709H439.8V191.709C439.8 189.109 441.6 187.109 443.8 187.109C447.4 187.109 466.9 197.509 483.4 200.409C508.3 204.709 531 193.209 535.9 191.509C544.3 188.509 551.1 198.909 561.7 187.209H562.1C564.3 187.209 566.1 189.309 566.1 191.809V226.809H573.1V178.809C572.9 167.009 559.3 137.409 536 148.709Z" fill="#231A17"/>
<g opacity="0.34">
<path opacity="0.34" d="M439.7 220.109H432.7V226.709H439.7V220.109Z" fill="#231A17"/>
<path opacity="0.34" d="M572.9 220.109H565.9V226.709H572.9V220.109Z" fill="#231A17"/>
</g>
<g filter="url(#filter0_d)">
<path d="M535.879 149.246C535.879 149.246 485.487 115.877 443.777 153.154C435.993 160.069 432.9 169.989 432.9 179.108V227.409H439.885V192.336C439.885 189.73 441.681 187.726 443.877 187.726C447.469 187.726 466.927 198.148 483.392 201.054C508.239 205.363 530.89 193.839 535.78 192.135C544.162 189.129 550.947 199.551 561.524 187.826H561.924C564.119 187.826 565.915 189.931 565.915 192.436V227.509H572.9V179.409C572.7 167.584 559.13 137.923 535.879 149.246Z" stroke="black" stroke-width="4" stroke-miterlimit="10" stroke-linecap="round" stroke-linejoin="round"/>
</g>
<path d="M493.3 181.209C493.3 181.209 439.1 184.709 427.6 155.909" stroke="black" stroke-width="4" stroke-miterlimit="10" stroke-linecap="round" stroke-linejoin="round"/>
<path d="M501 174.309C501 174.309 448.8 171.009 435.2 142.209" stroke="black" stroke-width="4" stroke-miterlimit="10" stroke-linecap="round" stroke-linejoin="round"/>
<path d="M565.9 218.909V251.709C572.9 251.709 578.5 244.409 578.5 235.309C578.5 226.209 572.9 218.909 565.9 218.909Z" fill="#FFC897"/>
<path d="M565.9 220.709V249.809C570 247.109 572.8 241.609 572.8 235.209C572.8 228.909 570 223.409 565.9 220.709Z" fill="#E5A973"/>
<path d="M565.9 218.909V251.709C572.9 251.709 578.5 244.409 578.5 235.309C578.5 226.209 572.9 218.909 565.9 218.909Z" stroke="black" stroke-width="4" stroke-miterlimit="10" stroke-linecap="round" stroke-linejoin="round"/>
<path d="M439.8 218.909V251.709C432.8 251.709 427.2 244.409 427.2 235.309C427.1 226.209 432.8 218.909 439.8 218.909Z" fill="#FFC897"/>
<path d="M439.8 221.309C436.2 224.209 433.7 229.409 433.7 235.309C433.7 241.209 436.1 246.409 439.8 249.309V221.309Z" fill="#E5A973"/>
<path d="M519.5 312C523.5 309.5 523 304.5 523 304.5C523 304.5 521.25 308.25 515.5 309C509.75 309.75 505.5 309 505.5 309H498.5C486.5 309 488 304.5 488 304.5C488 304.5 488 312 492.5 312M519.5 312C515.5 314.5 513.5 314.5 509.5 314.5C505.5 314.5 498.5 314.5 498.5 314.5C498.5 314.5 497 312 492.5 312M519.5 312C509.5 317.5 483 305.5 492.5 312" stroke="black"/>
<path d="M439.8 218.909V251.709C432.8 251.709 427.2 244.409 427.2 235.309C427.1 226.209 432.8 218.909 439.8 218.909Z" stroke="black" stroke-width="4" stroke-miterlimit="10" stroke-linecap="round" stroke-linejoin="round"/>
<path d="M500.2 245.609L496 259.309C496 260.809 500.9 259.609 505.9 260.809" stroke="black" stroke-width="4" stroke-miterlimit="10" stroke-linecap="round" stroke-linejoin="round"/>
<path d="M523.8 271.209C525.3 281.609 511.9 290.809 501.4 288.909" stroke="black" stroke-width="3" stroke-miterlimit="10" stroke-linecap="round" stroke-linejoin="round"/>
<path d="M480.1 234.009C482.42 234.009 484.3 231.994 484.3 229.509C484.3 227.023 482.42 225.009 480.1 225.009C477.781 225.009 475.9 227.023 475.9 229.509C475.9 231.994 477.781 234.009 480.1 234.009Z" stroke="black" stroke-width="2" stroke-miterlimit="10" stroke-linecap="round" stroke-linejoin="round"/>
<path d="M480.1 234.009C482.42 234.009 484.3 231.994 484.3 229.509C484.3 227.023 482.42 225.009 480.1 225.009C477.781 225.009 475.9 227.023 475.9 229.509C475.9 231.994 477.781 234.009 480.1 234.009Z" fill="black"/>
<path d="M465.6 220.009C467.7 217.509 472.6 215.809 478.4 215.809C483 215.809 487 216.909 489.5 218.609" stroke="black" stroke-width="3" stroke-miterlimit="10" stroke-linecap="round" stroke-linejoin="round"/>
<path d="M526.1 234.009C528.42 234.009 530.3 231.994 530.3 229.509C530.3 227.023 528.42 225.009 526.1 225.009C523.78 225.009 521.9 227.023 521.9 229.509C521.9 231.994 523.78 234.009 526.1 234.009Z" stroke="black" stroke-width="2" stroke-miterlimit="10" stroke-linecap="round" stroke-linejoin="round"/>
<path d="M526.1 234.009C528.42 234.009 530.3 231.994 530.3 229.509C530.3 227.023 528.42 225.009 526.1 225.009C523.78 225.009 521.9 227.023 521.9 229.509C521.9 231.994 523.78 234.009 526.1 234.009Z" fill="black"/>
<path d="M540.6 220.009C538.5 217.509 533.6 215.809 527.8 215.809C523.2 215.809 519.2 216.909 516.7 218.609" stroke="black" stroke-width="3" stroke-miterlimit="10" stroke-linecap="round" stroke-linejoin="round"/>
<path d="M489.759 310.605C492.444 310.605 495.459 311.032 497.903 312.254C498.775 312.689 495.881 312.145 495.043 311.648C494.138 311.11 493.153 310.207 494.801 310.169C495.785 310.147 493.91 310.904 492.813 309.588C492.49 309.2 491.747 309.466 491.553 309.03C491.302 308.466 491.553 307.822 491.068 307.309C489.511 305.661 489.759 308.261 489.759 309.297C489.759 311.129 491.447 311.404 492.813 312.011C494.126 312.595 496.146 312.787 497.612 312.787C500.458 312.787 499.235 312.512 497.612 310.799C496.973 310.124 495.826 309.763 494.995 309.394C493.131 308.565 495.834 309.301 496.546 309.636C498.538 310.573 501.022 310.169 503.187 310.169C505.027 310.169 507.238 310.061 508.955 309.394C509.439 309.206 508.898 310.572 507.646 310.605C505.309 310.669 503 311.341 500.666 311.478C498.641 311.597 499.316 313.613 500.86 313.999C502.115 314.313 503.732 314.168 505.029 314.096C505.674 314.06 506.63 313.61 507.21 313.32C507.277 313.287 503.81 313.223 502.944 313.223C501.141 313.223 499.294 313.443 502.266 312.787C503.724 312.465 505.372 312.349 506.725 311.672C507.523 311.273 508.021 310.683 508.955 310.605C510.458 310.48 511.363 309.297 512.882 309.297C513.532 309.297 511.35 310.597 511.306 310.63C510.321 311.363 509.277 312.304 507.986 312.351C506.634 312.399 506.586 312.675 508.034 312.448C510.028 312.135 511.668 312.424 513.56 311.478C515.106 310.705 516.594 310.605 517.244 310.605" stroke="black" stroke-width="3" stroke-linecap="round"/>
<path d="M512.881 311.478C514.507 310.82 516.49 309.039 518.214 308.86C518.967 308.782 519.365 308.577 519.595 307.794C519.96 306.554 517.889 308.005 517.487 308.182C515.782 308.932 513.557 309.733 511.791 309.733C510.358 309.733 511.307 309.733 512.203 309.733C513.495 309.733 514.958 309.262 515.935 308.424C516.69 307.777 519.789 305.862 520.734 305.807C522.411 305.708 522.043 306.702 522.043 308.618C522.043 310.332 521.106 312.351 519.207 312.351C517.529 312.351 518.589 312.596 518.989 311.696C519.365 310.85 519.894 310.282 520.201 309.394C520.887 307.411 520.471 305.765 521.607 304.061" stroke="black" stroke-width="3" stroke-linecap="round"/>
<path d="M493.249 311.042C492.134 308.418 492.067 309.552 490.196 308.763C489.633 308.526 488.902 308.415 488.45 307.988C488.387 307.928 487.772 307.097 487.772 307.212C487.772 308.298 488.667 309 489.323 309.733C489.748 310.208 490.16 312.994 489.759 312.593C489.326 312.16 488.08 310.204 488.014 309.636C487.888 308.545 486.329 308.137 486.269 307.115C486.217 306.234 487.166 305.851 488.014 305.807C489.527 305.727 489.279 306.221 490.196 306.679" stroke="black" stroke-width="3" stroke-linecap="round"/>
<path d="M488.014 307.115C489.685 307.115 491.549 306.861 493.152 307.455C493.85 307.713 493.991 308.518 494.655 308.763C495.722 309.159 497.346 308.86 498.485 308.86C499.983 308.86 501.272 308.772 502.653 309.394C504.24 310.108 507.693 309.733 503.284 309.733" stroke="black" stroke-width="3" stroke-linecap="round"/>
<path d="M490.195 309.733C488.914 309.701 487.583 309.75 487.142 308.424" stroke="black" stroke-width="3" stroke-linecap="round"/>
<path d="M487.422 307.077C487.067 307.069 485.951 306.647 486.207 307.304C486.347 307.661 486.588 308.117 486.959 308.199C487.498 308.319 488.087 309.649 488.431 310.083C488.583 310.275 490.262 311.423 489.625 311.514C489.048 311.597 488.439 310.839 487.978 310.557C487.407 310.208 487.055 309.265 486.485 308.838C486.091 308.542 485.384 307.938 485.384 307.448C485.384 307.086 485.104 305.966 485.487 305.966C485.799 305.966 486.712 306.666 487.052 306.892" stroke="black" stroke-width="3" stroke-linecap="round"/>
<path d="M492.981 307.448C495.684 307.673 498.291 308.375 501.021 308.375C502.656 308.375 504.25 308.975 505.87 308.93C506.612 308.91 507.788 308.775 508.464 308.467C509.547 307.975 510.441 308.93 511.573 308.93C513.157 308.93 515.112 308.335 516.515 307.633" stroke="black" stroke-width="3" stroke-linecap="round"/>
<path d="M510.399 308.56C511.481 308.56 512.74 308.59 513.735 308.148C514.067 308 514.362 308.064 514.703 307.963C515.035 307.864 515.323 307.471 515.629 307.448C516.813 307.36 518.557 307.258 519.479 306.336" stroke="black" stroke-width="3" stroke-linecap="round"/>
<path d="M520.776 305.224C521.759 304.522 522.745 304.23 523.556 303.371C524.375 302.504 524.668 303.787 524.668 304.576C524.668 306.861 523.105 308.861 521.332 310.042" stroke="black" stroke-width="3" stroke-linecap="round"/>
<path d="M491.313 314.86C492.489 315.108 493.157 315.626 494.124 316.27C494.314 316.397 494.7 316.372 494.917 316.332C495.258 316.27 495.784 316.189 496.028 315.972C496.139 315.874 496.59 315.77 496.224 315.694C495.431 315.529 494.485 315.716 493.753 315.313C493.306 315.067 493.22 314.418 492.611 314.489C492.221 314.535 492 315.045 492.621 315.045C493.176 315.045 493.44 315.436 493.908 315.684C494.426 315.958 494.702 316.342 495.308 316.342C495.792 316.342 496.245 316.29 496.687 316.487C497.864 317.01 499.217 316.985 500.393 317.413C501.02 317.641 501.303 317.361 501.876 317.279C502.506 317.189 503.195 317.269 503.832 317.269C504.986 317.269 506.097 317.148 507.249 317.084C508.459 317.016 509.102 316.268 510.399 316.528" stroke="black" stroke-width="3" stroke-linecap="round"/>
<path d="M507.62 317.084C508.773 317.212 510.498 317.61 511.625 317.176C512.138 316.979 512.847 317.285 513.282 316.898C513.879 316.368 514.602 316.604 515.32 316.301C516.067 315.987 516.983 315.02 517.482 314.386C517.921 313.829 518.842 313.17 519.109 312.636" stroke="black" stroke-width="3" stroke-linecap="round"/>
<path d="M523.37 308.189C523.303 310.204 522.266 311.605 521.147 313.203C520.57 314.027 519.868 314.667 518.923 315.087C516.738 316.058 514.296 315.972 511.882 315.972" stroke="black" stroke-width="3" stroke-linecap="round"/>
<path d="M498.17 316.898C496.942 316.928 495.673 317.416 494.649 316.538C493.78 315.793 492.445 315.345 492.24 314.119" stroke="black" stroke-width="3" stroke-linecap="round"/>
<path d="M519.479 307.448C517.954 308.646 516.607 310.03 515.032 311.154" stroke="black" stroke-width="3" stroke-linecap="round"/>
<path d="M522.073 308.189C523.379 307.268 524.125 305.952 524.472 304.39C524.602 303.806 524.708 303.126 525.038 302.63" stroke="black" stroke-width="3" stroke-linecap="round"/>
<path d="M524.482 303.742C524.482 304.999 524.122 305.862 523.916 306.995C523.679 308.298 522.939 309.36 522.629 310.598" stroke="black" stroke-width="3" stroke-linecap="round"/>
<path d="M524.668 303.001C525.009 304.791 524.205 306.104 523.185 307.633" stroke="black" stroke-width="3" stroke-linecap="round"/>
<path d="M485.199 304.113C486.195 304.526 486.675 305.05 487.69 305.235C488.269 305.34 488.541 306.151 489.275 306.151" stroke="black" stroke-width="3" stroke-linecap="round"/>
<path d="M484.643 305.224C484.876 306.451 485.295 307.284 486.084 308.23C486.413 308.625 486.219 309.425 486.774 309.672C487.193 309.858 487.237 310.562 487.237 310.969" stroke="black" stroke-width="3" stroke-linecap="round"/>
<path d="M489.831 315.231C490.535 315.53 490.659 315.763 491.128 316.26C491.315 316.458 491.285 316.713 491.591 316.713C492.392 316.713 493.088 317.825 493.815 317.825C494.577 317.825 494.998 317.107 495.617 317.084C496.588 317.046 497.568 317.084 498.54 317.084" stroke="black" stroke-width="3" stroke-linecap="round"/>
<path d="M495.761 316.713C497.049 317.129 498.207 318.01 499.57 318.01C501.317 318.01 498.423 318.121 498.015 317.917C497.638 317.729 497.254 317.475 496.914 317.228C496.498 316.925 495.923 317.196 495.452 317.001C494.968 316.801 494.784 316.375 494.876 317.104C494.933 317.564 494.881 318.341 495.411 318.473C496.433 318.729 497.298 319.064 498.355 318.947C499.216 318.851 500.131 319.307 501.032 319.307C501.832 319.307 502.736 319.357 503.358 318.834C503.618 318.615 505.062 318.544 505.386 318.576C506.342 318.672 507.027 319.38 507.98 319.493C508.922 319.603 510.152 319.908 511.1 319.637C511.58 319.499 512.214 318.953 512.664 318.937C514.45 318.873 515.948 318.276 517.348 317.187C517.861 316.788 517.845 316.048 518.224 315.519C518.675 314.887 519.109 314.154 519.109 313.378" stroke="black" stroke-width="3" stroke-linecap="round"/>
<path d="M507.249 318.937C506.015 318.937 504.975 319.307 503.77 319.307C503.286 319.307 501.111 319.032 500.887 318.659C500.812 318.533 501.869 318.6 501.917 318.607C502.829 318.738 503.359 319.308 503.986 319.935C504.631 320.58 504.897 320.944 505.788 320.697C506.895 320.389 508.449 321.002 509.473 320.46C510.005 320.179 509.528 320.048 509.185 320.048C508.395 320.048 507.583 319.986 506.796 320.048C505.91 320.118 505.707 320.73 504.696 320.46C503.974 320.268 503.268 320.059 502.535 319.863C501.542 319.598 500.374 319.627 499.456 319.215C498.89 318.96 498.404 318.937 497.799 318.937C497.313 318.937 497.015 318.566 496.502 318.566" stroke="black" stroke-width="3" stroke-linecap="round"/>
<path d="M512.623 319.307C511.053 319.307 509.52 319.493 507.95 319.493C507.355 319.493 504.508 319.569 504.285 319.122" stroke="black" stroke-width="3" stroke-linecap="round"/>
<path d="M504.655 319.678C503.586 319.847 502.481 320.234 501.412 320.234C500.475 320.234 499.535 320.048 498.623 320.048C497.736 320.048 496.825 319.154 496.131 318.607C495.265 317.925 494.264 317.174 493.537 316.342" stroke="black" stroke-width="3" stroke-linecap="round"/>
<path d="M504.655 320.79C503.747 320.79 502.187 321.063 501.279 320.748C500.065 320.328 499.206 319.075 497.984 318.566" stroke="black" stroke-width="3" stroke-linecap="round"/>
<path d="M513.735 308.004C512.582 308.004 512.186 308.041 511.326 308.519C510.246 309.119 510.336 309.486 509.844 309.486" stroke="black" stroke-width="3" stroke-linecap="round"/>
<path d="M519.479 305.78C519.109 306.14 518.265 307.151 517.709 307.252C517.182 307.348 516.848 307.443 516.515 307.901C515.997 308.613 513.995 308.04 513.55 308.93" stroke="black" stroke-width="3" stroke-linecap="round"/>
<path d="M507.249 308.375C506.5 308.619 505.845 308.594 505.119 308.755C504.866 308.811 504.576 309.184 504.285 309.301" stroke="black" stroke-width="3" stroke-linecap="round"/>
<path d="M483.16 304.113C483.554 305.04 484.406 305.825 485.384 306.151" stroke="black" stroke-width="3" stroke-linecap="round"/>
<path d="M483.901 305.224C484.175 306.091 484.513 306.648 485.209 307.17C485.894 307.684 486.304 308.626 486.866 309.301" stroke="black" stroke-width="3" stroke-linecap="round"/>
<path d="M486.866 309.301C487.844 310.103 488.518 310.627 487.052 309.486" stroke="black" stroke-width="3" stroke-linecap="round"/>
<path d="M482.79 303.371C483.24 303.925 483.716 304.112 484.272 304.483" stroke="black" stroke-width="3" stroke-linecap="round"/>
<path d="M483.531 303.742L484.457 304.298" stroke="black" stroke-width="3" stroke-linecap="round"/>
<defs>
<filter id="filter0_d" x="426.9" y="133.51" width="152" height="103.999" filterUnits="userSpaceOnUse" color-interpolation-filters="sRGB">
<feFlood flood-opacity="0" result="BackgroundImageFix"/>
<feColorMatrix in="SourceAlpha" type="matrix" values="0 0 0 0 0 0 0 0 0 0 0 0 0 0 0 0 0 0 127 0"/>
<feOffset dy="4"/>
<feGaussianBlur stdDeviation="2"/>
<feColorMatrix type="matrix" values="0 0 0 0 0 0 0 0 0 0 0 0 0 0 0 0 0 0 0.25 0"/>
<feBlend mode="normal" in2="BackgroundImageFix" result="effect1_dropShadow"/>
<feBlend mode="normal" in="SourceGraphic" in2="effect1_dropShadow" result="shape"/>
</filter>
</defs>
</svg>
